<mxfile host="app.diagrams.net" modified="2023-11-05T21:18:20.267Z" agent="Mozilla/5.0 (Windows NT 10.0; Win64; x64) AppleWebKit/537.36 (KHTML, like Gecko) Chrome/119.0.0.0 Safari/537.36" etag="ifrGU8SJ3COyrBCGR4by" version="22.0.8" type="device">
  <diagram name="Page-1" id="7ykQqm1KrUZKdQSwvkGB">
    <mxGraphModel dx="3430" dy="2230" grid="1" gridSize="10" guides="1" tooltips="1" connect="1" arrows="1" fold="1" page="1" pageScale="1" pageWidth="850" pageHeight="1100" math="0" shadow="0">
      <root>
        <mxCell id="0" />
        <mxCell id="1" parent="0" />
        <mxCell id="oiTHZw6a8BI90Ofq1Eke-1" value="Professor" style="shape=table;startSize=50;container=1;collapsible=1;childLayout=tableLayout;fixedRows=1;rowLines=0;fontStyle=1;align=center;resizeLast=1;html=1;whiteSpace=wrap;fontSize=17;" parent="1" vertex="1">
          <mxGeometry x="440" y="84" width="340" height="410" as="geometry" />
        </mxCell>
        <mxCell id="oiTHZw6a8BI90Ofq1Eke-2" value="" style="shape=tableRow;horizontal=0;startSize=0;swimlaneHead=0;swimlaneBody=0;fillColor=none;collapsible=0;dropTarget=0;points=[[0,0.5],[1,0.5]];portConstraint=eastwest;top=0;left=0;right=0;bottom=1;html=1;fontSize=17;" parent="oiTHZw6a8BI90Ofq1Eke-1" vertex="1">
          <mxGeometry y="50" width="340" height="60" as="geometry" />
        </mxCell>
        <mxCell id="oiTHZw6a8BI90Ofq1Eke-3" value="PK, FK(1to1)" style="shape=partialRectangle;connectable=0;fillColor=none;top=0;left=0;bottom=0;right=0;fontStyle=1;overflow=hidden;html=1;whiteSpace=wrap;fontSize=17;" parent="oiTHZw6a8BI90Ofq1Eke-2" vertex="1">
          <mxGeometry width="185" height="60" as="geometry">
            <mxRectangle width="185" height="60" as="alternateBounds" />
          </mxGeometry>
        </mxCell>
        <mxCell id="oiTHZw6a8BI90Ofq1Eke-4" value="User_id" style="shape=partialRectangle;connectable=0;fillColor=none;top=0;left=0;bottom=0;right=0;align=center;spacingLeft=6;fontStyle=5;overflow=hidden;html=1;whiteSpace=wrap;fontSize=17;" parent="oiTHZw6a8BI90Ofq1Eke-2" vertex="1">
          <mxGeometry x="185" width="155" height="60" as="geometry">
            <mxRectangle width="155" height="60" as="alternateBounds" />
          </mxGeometry>
        </mxCell>
        <mxCell id="oiTHZw6a8BI90Ofq1Eke-5" value="" style="shape=tableRow;horizontal=0;startSize=0;swimlaneHead=0;swimlaneBody=0;fillColor=none;collapsible=0;dropTarget=0;points=[[0,0.5],[1,0.5]];portConstraint=eastwest;top=0;left=0;right=0;bottom=0;html=1;fontSize=17;" parent="oiTHZw6a8BI90Ofq1Eke-1" vertex="1">
          <mxGeometry y="110" width="340" height="60" as="geometry" />
        </mxCell>
        <mxCell id="oiTHZw6a8BI90Ofq1Eke-6" value="FK(Mto1 with School)" style="shape=partialRectangle;connectable=0;fillColor=none;top=0;left=0;bottom=0;right=0;fontStyle=1;overflow=hidden;html=1;whiteSpace=wrap;fontSize=17;" parent="oiTHZw6a8BI90Ofq1Eke-5" vertex="1">
          <mxGeometry width="185" height="60" as="geometry">
            <mxRectangle width="185" height="60" as="alternateBounds" />
          </mxGeometry>
        </mxCell>
        <mxCell id="oiTHZw6a8BI90Ofq1Eke-7" value="School" style="shape=partialRectangle;connectable=0;fillColor=none;top=0;left=0;bottom=0;right=0;align=center;spacingLeft=6;fontStyle=5;overflow=hidden;html=1;whiteSpace=wrap;fontSize=17;" parent="oiTHZw6a8BI90Ofq1Eke-5" vertex="1">
          <mxGeometry x="185" width="155" height="60" as="geometry">
            <mxRectangle width="155" height="60" as="alternateBounds" />
          </mxGeometry>
        </mxCell>
        <mxCell id="oiTHZw6a8BI90Ofq1Eke-8" value="" style="shape=tableRow;horizontal=0;startSize=0;swimlaneHead=0;swimlaneBody=0;fillColor=none;collapsible=0;dropTarget=0;points=[[0,0.5],[1,0.5]];portConstraint=eastwest;top=0;left=0;right=0;bottom=0;html=1;fontSize=17;" parent="oiTHZw6a8BI90Ofq1Eke-1" vertex="1">
          <mxGeometry y="170" width="340" height="70" as="geometry" />
        </mxCell>
        <mxCell id="oiTHZw6a8BI90Ofq1Eke-9" value="FK(MtoM with Course)" style="shape=partialRectangle;connectable=0;fillColor=none;top=0;left=0;bottom=0;right=0;fontStyle=1;overflow=hidden;html=1;whiteSpace=wrap;fontSize=17;" parent="oiTHZw6a8BI90Ofq1Eke-8" vertex="1">
          <mxGeometry width="185" height="70" as="geometry">
            <mxRectangle width="185" height="70" as="alternateBounds" />
          </mxGeometry>
        </mxCell>
        <mxCell id="oiTHZw6a8BI90Ofq1Eke-10" value="Past_Courses" style="shape=partialRectangle;connectable=0;fillColor=none;top=0;left=0;bottom=0;right=0;align=center;spacingLeft=6;fontStyle=5;overflow=hidden;html=1;whiteSpace=wrap;fontSize=17;" parent="oiTHZw6a8BI90Ofq1Eke-8" vertex="1">
          <mxGeometry x="185" width="155" height="70" as="geometry">
            <mxRectangle width="155" height="70" as="alternateBounds" />
          </mxGeometry>
        </mxCell>
        <mxCell id="oiTHZw6a8BI90Ofq1Eke-11" value="" style="shape=tableRow;horizontal=0;startSize=0;swimlaneHead=0;swimlaneBody=0;fillColor=none;collapsible=0;dropTarget=0;points=[[0,0.5],[1,0.5]];portConstraint=eastwest;top=0;left=0;right=0;bottom=1;html=1;fontSize=17;" parent="oiTHZw6a8BI90Ofq1Eke-1" vertex="1">
          <mxGeometry y="240" width="340" height="70" as="geometry" />
        </mxCell>
        <mxCell id="oiTHZw6a8BI90Ofq1Eke-12" value="FK(Mto1 with Field)" style="shape=partialRectangle;connectable=0;fillColor=none;top=0;left=0;bottom=0;right=0;fontStyle=1;overflow=hidden;html=1;whiteSpace=wrap;fontSize=17;" parent="oiTHZw6a8BI90Ofq1Eke-11" vertex="1">
          <mxGeometry width="185" height="70" as="geometry">
            <mxRectangle width="185" height="70" as="alternateBounds" />
          </mxGeometry>
        </mxCell>
        <mxCell id="oiTHZw6a8BI90Ofq1Eke-13" value="Major" style="shape=partialRectangle;connectable=0;fillColor=none;top=0;left=0;bottom=0;right=0;align=center;spacingLeft=6;fontStyle=5;overflow=hidden;html=1;whiteSpace=wrap;fontSize=17;" parent="oiTHZw6a8BI90Ofq1Eke-11" vertex="1">
          <mxGeometry x="185" width="155" height="70" as="geometry">
            <mxRectangle width="155" height="70" as="alternateBounds" />
          </mxGeometry>
        </mxCell>
        <mxCell id="oiTHZw6a8BI90Ofq1Eke-14" value="" style="shape=tableRow;horizontal=0;startSize=0;swimlaneHead=0;swimlaneBody=0;fillColor=none;collapsible=0;dropTarget=0;points=[[0,0.5],[1,0.5]];portConstraint=eastwest;top=0;left=0;right=0;bottom=0;html=1;fontSize=17;" parent="oiTHZw6a8BI90Ofq1Eke-1" vertex="1">
          <mxGeometry y="310" width="340" height="50" as="geometry" />
        </mxCell>
        <mxCell id="oiTHZw6a8BI90Ofq1Eke-15" value="" style="shape=partialRectangle;connectable=0;fillColor=none;top=0;left=0;bottom=0;right=0;editable=1;overflow=hidden;html=1;whiteSpace=wrap;fontSize=17;" parent="oiTHZw6a8BI90Ofq1Eke-14" vertex="1">
          <mxGeometry width="185" height="50" as="geometry">
            <mxRectangle width="185" height="50" as="alternateBounds" />
          </mxGeometry>
        </mxCell>
        <mxCell id="oiTHZw6a8BI90Ofq1Eke-16" value="Expertise" style="shape=partialRectangle;connectable=0;fillColor=none;top=0;left=0;bottom=0;right=0;align=center;spacingLeft=6;overflow=hidden;html=1;whiteSpace=wrap;fontSize=17;" parent="oiTHZw6a8BI90Ofq1Eke-14" vertex="1">
          <mxGeometry x="185" width="155" height="50" as="geometry">
            <mxRectangle width="155" height="50" as="alternateBounds" />
          </mxGeometry>
        </mxCell>
        <mxCell id="oiTHZw6a8BI90Ofq1Eke-17" value="" style="shape=tableRow;horizontal=0;startSize=0;swimlaneHead=0;swimlaneBody=0;fillColor=none;collapsible=0;dropTarget=0;points=[[0,0.5],[1,0.5]];portConstraint=eastwest;top=0;left=0;right=0;bottom=0;html=1;fontSize=17;" parent="oiTHZw6a8BI90Ofq1Eke-1" vertex="1">
          <mxGeometry y="360" width="340" height="50" as="geometry" />
        </mxCell>
        <mxCell id="oiTHZw6a8BI90Ofq1Eke-18" value="" style="shape=partialRectangle;connectable=0;fillColor=none;top=0;left=0;bottom=0;right=0;editable=1;overflow=hidden;html=1;whiteSpace=wrap;fontSize=17;" parent="oiTHZw6a8BI90Ofq1Eke-17" vertex="1">
          <mxGeometry width="185" height="50" as="geometry">
            <mxRectangle width="185" height="50" as="alternateBounds" />
          </mxGeometry>
        </mxCell>
        <mxCell id="oiTHZw6a8BI90Ofq1Eke-19" value="rank" style="shape=partialRectangle;connectable=0;fillColor=none;top=0;left=0;bottom=0;right=0;align=center;spacingLeft=6;overflow=hidden;html=1;whiteSpace=wrap;fontSize=17;" parent="oiTHZw6a8BI90Ofq1Eke-17" vertex="1">
          <mxGeometry x="185" width="155" height="50" as="geometry">
            <mxRectangle width="155" height="50" as="alternateBounds" />
          </mxGeometry>
        </mxCell>
        <mxCell id="oiTHZw6a8BI90Ofq1Eke-20" value="Student" style="shape=table;startSize=40;container=1;collapsible=1;childLayout=tableLayout;fixedRows=1;rowLines=0;fontStyle=1;align=center;resizeLast=1;html=1;whiteSpace=wrap;fontSize=17;" parent="1" vertex="1">
          <mxGeometry x="-70" y="190" width="370" height="510" as="geometry" />
        </mxCell>
        <mxCell id="oiTHZw6a8BI90Ofq1Eke-21" value="" style="shape=tableRow;horizontal=0;startSize=0;swimlaneHead=0;swimlaneBody=0;fillColor=none;collapsible=0;dropTarget=0;points=[[0,0.5],[1,0.5]];portConstraint=eastwest;top=0;left=0;right=0;bottom=1;html=1;fontSize=17;" parent="oiTHZw6a8BI90Ofq1Eke-20" vertex="1">
          <mxGeometry y="40" width="370" height="40" as="geometry" />
        </mxCell>
        <mxCell id="oiTHZw6a8BI90Ofq1Eke-22" value="PK, FK(1to1)" style="shape=partialRectangle;connectable=0;fillColor=none;top=0;left=0;bottom=0;right=0;fontStyle=1;overflow=hidden;html=1;whiteSpace=wrap;fontSize=17;" parent="oiTHZw6a8BI90Ofq1Eke-21" vertex="1">
          <mxGeometry width="210" height="40" as="geometry">
            <mxRectangle width="210" height="40" as="alternateBounds" />
          </mxGeometry>
        </mxCell>
        <mxCell id="oiTHZw6a8BI90Ofq1Eke-23" value="User_id" style="shape=partialRectangle;connectable=0;fillColor=none;top=0;left=0;bottom=0;right=0;align=center;spacingLeft=6;fontStyle=5;overflow=hidden;html=1;whiteSpace=wrap;fontSize=17;" parent="oiTHZw6a8BI90Ofq1Eke-21" vertex="1">
          <mxGeometry x="210" width="160" height="40" as="geometry">
            <mxRectangle width="160" height="40" as="alternateBounds" />
          </mxGeometry>
        </mxCell>
        <mxCell id="oiTHZw6a8BI90Ofq1Eke-24" value="" style="shape=tableRow;horizontal=0;startSize=0;swimlaneHead=0;swimlaneBody=0;fillColor=none;collapsible=0;dropTarget=0;points=[[0,0.5],[1,0.5]];portConstraint=eastwest;top=0;left=0;right=0;bottom=0;html=1;fontSize=17;" parent="oiTHZw6a8BI90Ofq1Eke-20" vertex="1">
          <mxGeometry y="80" width="370" height="40" as="geometry" />
        </mxCell>
        <mxCell id="oiTHZw6a8BI90Ofq1Eke-25" value="FK (Mto1 with Professor)" style="shape=partialRectangle;connectable=0;fillColor=none;top=0;left=0;bottom=0;right=0;fontStyle=1;overflow=hidden;html=1;whiteSpace=wrap;fontSize=17;" parent="oiTHZw6a8BI90Ofq1Eke-24" vertex="1">
          <mxGeometry width="210" height="40" as="geometry">
            <mxRectangle width="210" height="40" as="alternateBounds" />
          </mxGeometry>
        </mxCell>
        <mxCell id="oiTHZw6a8BI90Ofq1Eke-26" value="Supervisor" style="shape=partialRectangle;connectable=0;fillColor=none;top=0;left=0;bottom=0;right=0;align=center;spacingLeft=6;fontStyle=5;overflow=hidden;html=1;whiteSpace=wrap;fontSize=17;" parent="oiTHZw6a8BI90Ofq1Eke-24" vertex="1">
          <mxGeometry x="210" width="160" height="40" as="geometry">
            <mxRectangle width="160" height="40" as="alternateBounds" />
          </mxGeometry>
        </mxCell>
        <mxCell id="oiTHZw6a8BI90Ofq1Eke-27" value="" style="shape=tableRow;horizontal=0;startSize=0;swimlaneHead=0;swimlaneBody=0;fillColor=none;collapsible=0;dropTarget=0;points=[[0,0.5],[1,0.5]];portConstraint=eastwest;top=0;left=0;right=0;bottom=0;fontSize=17;" parent="oiTHZw6a8BI90Ofq1Eke-20" vertex="1">
          <mxGeometry y="120" width="370" height="50" as="geometry" />
        </mxCell>
        <mxCell id="oiTHZw6a8BI90Ofq1Eke-28" value="&lt;b style=&quot;font-size: 17px;&quot;&gt;&lt;font style=&quot;font-size: 17px;&quot;&gt;FK (Mto1 with Field)&lt;/font&gt;&lt;/b&gt;" style="shape=partialRectangle;connectable=0;fillColor=none;top=0;left=0;bottom=0;right=0;fontStyle=0;overflow=hidden;whiteSpace=wrap;html=1;fontSize=17;" parent="oiTHZw6a8BI90Ofq1Eke-27" vertex="1">
          <mxGeometry width="210" height="50" as="geometry">
            <mxRectangle width="210" height="50" as="alternateBounds" />
          </mxGeometry>
        </mxCell>
        <mxCell id="oiTHZw6a8BI90Ofq1Eke-29" value="&lt;b style=&quot;font-size: 17px;&quot;&gt;&lt;u style=&quot;font-size: 17px;&quot;&gt;Major&lt;/u&gt;&lt;/b&gt;" style="shape=partialRectangle;connectable=0;fillColor=none;top=0;left=0;bottom=0;right=0;align=center;spacingLeft=6;fontStyle=0;overflow=hidden;whiteSpace=wrap;html=1;fontSize=17;" parent="oiTHZw6a8BI90Ofq1Eke-27" vertex="1">
          <mxGeometry x="210" width="160" height="50" as="geometry">
            <mxRectangle width="160" height="50" as="alternateBounds" />
          </mxGeometry>
        </mxCell>
        <mxCell id="oiTHZw6a8BI90Ofq1Eke-30" value="" style="shape=tableRow;horizontal=0;startSize=0;swimlaneHead=0;swimlaneBody=0;fillColor=none;collapsible=0;dropTarget=0;points=[[0,0.5],[1,0.5]];portConstraint=eastwest;top=0;left=0;right=0;bottom=1;html=1;fontSize=17;" parent="oiTHZw6a8BI90Ofq1Eke-20" vertex="1">
          <mxGeometry y="170" width="370" height="60" as="geometry" />
        </mxCell>
        <mxCell id="oiTHZw6a8BI90Ofq1Eke-31" value="FK (Mto1 with School)" style="shape=partialRectangle;connectable=0;fillColor=none;top=0;left=0;bottom=0;right=0;fontStyle=1;overflow=hidden;html=1;whiteSpace=wrap;fontSize=17;" parent="oiTHZw6a8BI90Ofq1Eke-30" vertex="1">
          <mxGeometry width="210" height="60" as="geometry">
            <mxRectangle width="210" height="60" as="alternateBounds" />
          </mxGeometry>
        </mxCell>
        <mxCell id="oiTHZw6a8BI90Ofq1Eke-32" value="School" style="shape=partialRectangle;connectable=0;fillColor=none;top=0;left=0;bottom=0;right=0;align=center;spacingLeft=6;fontStyle=5;overflow=hidden;html=1;whiteSpace=wrap;fontSize=17;" parent="oiTHZw6a8BI90Ofq1Eke-30" vertex="1">
          <mxGeometry x="210" width="160" height="60" as="geometry">
            <mxRectangle width="160" height="60" as="alternateBounds" />
          </mxGeometry>
        </mxCell>
        <mxCell id="oiTHZw6a8BI90Ofq1Eke-33" value="" style="shape=tableRow;horizontal=0;startSize=0;swimlaneHead=0;swimlaneBody=0;fillColor=none;collapsible=0;dropTarget=0;points=[[0,0.5],[1,0.5]];portConstraint=eastwest;top=0;left=0;right=0;bottom=0;html=1;fontSize=17;" parent="oiTHZw6a8BI90Ofq1Eke-20" vertex="1">
          <mxGeometry y="230" width="370" height="60" as="geometry" />
        </mxCell>
        <mxCell id="oiTHZw6a8BI90Ofq1Eke-34" value="" style="shape=partialRectangle;connectable=0;fillColor=none;top=0;left=0;bottom=0;right=0;editable=1;overflow=hidden;html=1;whiteSpace=wrap;fontSize=17;" parent="oiTHZw6a8BI90Ofq1Eke-33" vertex="1">
          <mxGeometry width="210" height="60" as="geometry">
            <mxRectangle width="210" height="60" as="alternateBounds" />
          </mxGeometry>
        </mxCell>
        <mxCell id="oiTHZw6a8BI90Ofq1Eke-35" value="Entrance_year" style="shape=partialRectangle;connectable=0;fillColor=none;top=0;left=0;bottom=0;right=0;align=center;spacingLeft=6;overflow=hidden;html=1;whiteSpace=wrap;fontSize=17;" parent="oiTHZw6a8BI90Ofq1Eke-33" vertex="1">
          <mxGeometry x="210" width="160" height="60" as="geometry">
            <mxRectangle width="160" height="60" as="alternateBounds" />
          </mxGeometry>
        </mxCell>
        <mxCell id="oiTHZw6a8BI90Ofq1Eke-36" value="" style="shape=tableRow;horizontal=0;startSize=0;swimlaneHead=0;swimlaneBody=0;fillColor=none;collapsible=0;dropTarget=0;points=[[0,0.5],[1,0.5]];portConstraint=eastwest;top=0;left=0;right=0;bottom=0;html=1;fontSize=17;" parent="oiTHZw6a8BI90Ofq1Eke-20" vertex="1">
          <mxGeometry y="290" width="370" height="60" as="geometry" />
        </mxCell>
        <mxCell id="oiTHZw6a8BI90Ofq1Eke-37" value="" style="shape=partialRectangle;connectable=0;fillColor=none;top=0;left=0;bottom=0;right=0;editable=1;overflow=hidden;html=1;whiteSpace=wrap;fontSize=17;" parent="oiTHZw6a8BI90Ofq1Eke-36" vertex="1">
          <mxGeometry width="210" height="60" as="geometry">
            <mxRectangle width="210" height="60" as="alternateBounds" />
          </mxGeometry>
        </mxCell>
        <mxCell id="oiTHZw6a8BI90Ofq1Eke-38" value="Entrance_term" style="shape=partialRectangle;connectable=0;fillColor=none;top=0;left=0;bottom=0;right=0;align=center;spacingLeft=6;overflow=hidden;html=1;whiteSpace=wrap;fontSize=17;" parent="oiTHZw6a8BI90Ofq1Eke-36" vertex="1">
          <mxGeometry x="210" width="160" height="60" as="geometry">
            <mxRectangle width="160" height="60" as="alternateBounds" />
          </mxGeometry>
        </mxCell>
        <mxCell id="oiTHZw6a8BI90Ofq1Eke-39" value="" style="shape=tableRow;horizontal=0;startSize=0;swimlaneHead=0;swimlaneBody=0;fillColor=none;collapsible=0;dropTarget=0;points=[[0,0.5],[1,0.5]];portConstraint=eastwest;top=0;left=0;right=0;bottom=0;html=1;fontSize=17;" parent="oiTHZw6a8BI90Ofq1Eke-20" vertex="1">
          <mxGeometry y="350" width="370" height="60" as="geometry" />
        </mxCell>
        <mxCell id="oiTHZw6a8BI90Ofq1Eke-40" value="" style="shape=partialRectangle;connectable=0;fillColor=none;top=0;left=0;bottom=0;right=0;editable=1;overflow=hidden;html=1;whiteSpace=wrap;fontSize=17;" parent="oiTHZw6a8BI90Ofq1Eke-39" vertex="1">
          <mxGeometry width="210" height="60" as="geometry">
            <mxRectangle width="210" height="60" as="alternateBounds" />
          </mxGeometry>
        </mxCell>
        <mxCell id="oiTHZw6a8BI90Ofq1Eke-41" value="Military_status" style="shape=partialRectangle;connectable=0;fillColor=none;top=0;left=0;bottom=0;right=0;align=center;spacingLeft=6;overflow=hidden;html=1;whiteSpace=wrap;fontSize=17;" parent="oiTHZw6a8BI90Ofq1Eke-39" vertex="1">
          <mxGeometry x="210" width="160" height="60" as="geometry">
            <mxRectangle width="160" height="60" as="alternateBounds" />
          </mxGeometry>
        </mxCell>
        <mxCell id="oiTHZw6a8BI90Ofq1Eke-42" value="" style="shape=tableRow;horizontal=0;startSize=0;swimlaneHead=0;swimlaneBody=0;fillColor=none;collapsible=0;dropTarget=0;points=[[0,0.5],[1,0.5]];portConstraint=eastwest;top=0;left=0;right=0;bottom=0;html=1;fontSize=17;" parent="oiTHZw6a8BI90Ofq1Eke-20" vertex="1">
          <mxGeometry y="410" width="370" height="40" as="geometry" />
        </mxCell>
        <mxCell id="oiTHZw6a8BI90Ofq1Eke-43" value="" style="shape=partialRectangle;connectable=0;fillColor=none;top=0;left=0;bottom=0;right=0;editable=1;overflow=hidden;html=1;whiteSpace=wrap;fontSize=17;" parent="oiTHZw6a8BI90Ofq1Eke-42" vertex="1">
          <mxGeometry width="210" height="40" as="geometry">
            <mxRectangle width="210" height="40" as="alternateBounds" />
          </mxGeometry>
        </mxCell>
        <mxCell id="oiTHZw6a8BI90Ofq1Eke-44" value="Sanavat" style="shape=partialRectangle;connectable=0;fillColor=none;top=0;left=0;bottom=0;right=0;align=center;spacingLeft=6;overflow=hidden;html=1;whiteSpace=wrap;fontSize=17;" parent="oiTHZw6a8BI90Ofq1Eke-42" vertex="1">
          <mxGeometry x="210" width="160" height="40" as="geometry">
            <mxRectangle width="160" height="40" as="alternateBounds" />
          </mxGeometry>
        </mxCell>
        <mxCell id="oiTHZw6a8BI90Ofq1Eke-45" value="" style="shape=tableRow;horizontal=0;startSize=0;swimlaneHead=0;swimlaneBody=0;fillColor=none;collapsible=0;dropTarget=0;points=[[0,0.5],[1,0.5]];portConstraint=eastwest;top=0;left=0;right=0;bottom=0;html=1;fontSize=17;" parent="oiTHZw6a8BI90Ofq1Eke-20" vertex="1">
          <mxGeometry y="450" width="370" height="60" as="geometry" />
        </mxCell>
        <mxCell id="oiTHZw6a8BI90Ofq1Eke-46" value="" style="shape=partialRectangle;connectable=0;fillColor=none;top=0;left=0;bottom=0;right=0;editable=1;overflow=hidden;html=1;whiteSpace=wrap;fontSize=17;" parent="oiTHZw6a8BI90Ofq1Eke-45" vertex="1">
          <mxGeometry width="210" height="60" as="geometry">
            <mxRectangle width="210" height="60" as="alternateBounds" />
          </mxGeometry>
        </mxCell>
        <mxCell id="oiTHZw6a8BI90Ofq1Eke-47" value="Avrage_grade" style="shape=partialRectangle;connectable=0;fillColor=none;top=0;left=0;bottom=0;right=0;align=center;spacingLeft=6;overflow=hidden;html=1;whiteSpace=wrap;fontSize=17;" parent="oiTHZw6a8BI90Ofq1Eke-45" vertex="1">
          <mxGeometry x="210" width="160" height="60" as="geometry">
            <mxRectangle width="160" height="60" as="alternateBounds" />
          </mxGeometry>
        </mxCell>
        <mxCell id="oiTHZw6a8BI90Ofq1Eke-48" value="&lt;p style=&quot;line-height: 120%; font-size: 17px;&quot;&gt;Field&lt;/p&gt;" style="shape=table;startSize=40;container=1;collapsible=1;childLayout=tableLayout;fixedRows=1;rowLines=0;fontStyle=1;align=center;resizeLast=1;html=1;whiteSpace=wrap;fontSize=17;" parent="1" vertex="1">
          <mxGeometry x="-360" y="770" width="340" height="297" as="geometry" />
        </mxCell>
        <mxCell id="oiTHZw6a8BI90Ofq1Eke-49" value="" style="shape=tableRow;horizontal=0;startSize=0;swimlaneHead=0;swimlaneBody=0;fillColor=none;collapsible=0;dropTarget=0;points=[[0,0.5],[1,0.5]];portConstraint=eastwest;top=0;left=0;right=0;bottom=0;html=1;fontSize=17;" parent="oiTHZw6a8BI90Ofq1Eke-48" vertex="1">
          <mxGeometry y="40" width="340" height="50" as="geometry" />
        </mxCell>
        <mxCell id="oiTHZw6a8BI90Ofq1Eke-50" value="PK" style="shape=partialRectangle;connectable=0;fillColor=none;top=0;left=0;bottom=0;right=0;fontStyle=1;overflow=hidden;html=1;whiteSpace=wrap;fontSize=17;container=1;" parent="oiTHZw6a8BI90Ofq1Eke-49" vertex="1">
          <mxGeometry width="180" height="50" as="geometry">
            <mxRectangle width="180" height="50" as="alternateBounds" />
          </mxGeometry>
        </mxCell>
        <mxCell id="oiTHZw6a8BI90Ofq1Eke-51" value="Unique_id" style="shape=partialRectangle;connectable=0;fillColor=none;top=0;left=0;bottom=0;right=0;align=center;spacingLeft=6;fontStyle=5;overflow=hidden;html=1;whiteSpace=wrap;fontSize=17;" parent="oiTHZw6a8BI90Ofq1Eke-49" vertex="1">
          <mxGeometry x="180" width="160" height="50" as="geometry">
            <mxRectangle width="160" height="50" as="alternateBounds" />
          </mxGeometry>
        </mxCell>
        <mxCell id="oiTHZw6a8BI90Ofq1Eke-52" value="" style="shape=tableRow;horizontal=0;startSize=0;swimlaneHead=0;swimlaneBody=0;fillColor=none;collapsible=0;dropTarget=0;points=[[0,0.5],[1,0.5]];portConstraint=eastwest;top=0;left=0;right=0;bottom=1;html=1;fontSize=17;" parent="oiTHZw6a8BI90Ofq1Eke-48" vertex="1">
          <mxGeometry y="90" width="340" height="50" as="geometry" />
        </mxCell>
        <mxCell id="oiTHZw6a8BI90Ofq1Eke-53" value="FK(Mto1 with School)" style="shape=partialRectangle;connectable=0;fillColor=none;top=0;left=0;bottom=0;right=0;fontStyle=1;overflow=hidden;html=1;whiteSpace=wrap;fontSize=17;" parent="oiTHZw6a8BI90Ofq1Eke-52" vertex="1">
          <mxGeometry width="180" height="50" as="geometry">
            <mxRectangle width="180" height="50" as="alternateBounds" />
          </mxGeometry>
        </mxCell>
        <mxCell id="oiTHZw6a8BI90Ofq1Eke-54" value="School" style="shape=partialRectangle;connectable=0;fillColor=none;top=0;left=0;bottom=0;right=0;align=center;spacingLeft=6;fontStyle=5;overflow=hidden;html=1;whiteSpace=wrap;fontSize=17;" parent="oiTHZw6a8BI90Ofq1Eke-52" vertex="1">
          <mxGeometry x="180" width="160" height="50" as="geometry">
            <mxRectangle width="160" height="50" as="alternateBounds" />
          </mxGeometry>
        </mxCell>
        <mxCell id="oiTHZw6a8BI90Ofq1Eke-55" value="" style="shape=tableRow;horizontal=0;startSize=0;swimlaneHead=0;swimlaneBody=0;fillColor=none;collapsible=0;dropTarget=0;points=[[0,0.5],[1,0.5]];portConstraint=eastwest;top=0;left=0;right=0;bottom=0;html=1;fontSize=17;" parent="oiTHZw6a8BI90Ofq1Eke-48" vertex="1">
          <mxGeometry y="140" width="340" height="60" as="geometry" />
        </mxCell>
        <mxCell id="oiTHZw6a8BI90Ofq1Eke-56" value="" style="shape=partialRectangle;connectable=0;fillColor=none;top=0;left=0;bottom=0;right=0;editable=1;overflow=hidden;html=1;whiteSpace=wrap;fontSize=17;" parent="oiTHZw6a8BI90Ofq1Eke-55" vertex="1">
          <mxGeometry width="180" height="60" as="geometry">
            <mxRectangle width="180" height="60" as="alternateBounds" />
          </mxGeometry>
        </mxCell>
        <mxCell id="oiTHZw6a8BI90Ofq1Eke-57" value="Name" style="shape=partialRectangle;connectable=0;fillColor=none;top=0;left=0;bottom=0;right=0;align=center;spacingLeft=6;overflow=hidden;html=1;whiteSpace=wrap;fontSize=17;" parent="oiTHZw6a8BI90Ofq1Eke-55" vertex="1">
          <mxGeometry x="180" width="160" height="60" as="geometry">
            <mxRectangle width="160" height="60" as="alternateBounds" />
          </mxGeometry>
        </mxCell>
        <mxCell id="oiTHZw6a8BI90Ofq1Eke-58" value="" style="shape=tableRow;horizontal=0;startSize=0;swimlaneHead=0;swimlaneBody=0;fillColor=none;collapsible=0;dropTarget=0;points=[[0,0.5],[1,0.5]];portConstraint=eastwest;top=0;left=0;right=0;bottom=0;html=1;fontSize=17;" parent="oiTHZw6a8BI90Ofq1Eke-48" vertex="1">
          <mxGeometry y="200" width="340" height="47" as="geometry" />
        </mxCell>
        <mxCell id="oiTHZw6a8BI90Ofq1Eke-59" value="" style="shape=partialRectangle;connectable=0;fillColor=none;top=0;left=0;bottom=0;right=0;editable=1;overflow=hidden;html=1;whiteSpace=wrap;fontSize=17;" parent="oiTHZw6a8BI90Ofq1Eke-58" vertex="1">
          <mxGeometry width="180" height="47" as="geometry">
            <mxRectangle width="180" height="47" as="alternateBounds" />
          </mxGeometry>
        </mxCell>
        <mxCell id="oiTHZw6a8BI90Ofq1Eke-60" value="Credits" style="shape=partialRectangle;connectable=0;fillColor=none;top=0;left=0;bottom=0;right=0;align=center;spacingLeft=6;overflow=hidden;html=1;whiteSpace=wrap;fontSize=17;" parent="oiTHZw6a8BI90Ofq1Eke-58" vertex="1">
          <mxGeometry x="180" width="160" height="47" as="geometry">
            <mxRectangle width="160" height="47" as="alternateBounds" />
          </mxGeometry>
        </mxCell>
        <mxCell id="oiTHZw6a8BI90Ofq1Eke-61" value="" style="shape=tableRow;horizontal=0;startSize=0;swimlaneHead=0;swimlaneBody=0;fillColor=none;collapsible=0;dropTarget=0;points=[[0,0.5],[1,0.5]];portConstraint=eastwest;top=0;left=0;right=0;bottom=0;html=1;fontSize=17;" parent="oiTHZw6a8BI90Ofq1Eke-48" vertex="1">
          <mxGeometry y="247" width="340" height="50" as="geometry" />
        </mxCell>
        <mxCell id="oiTHZw6a8BI90Ofq1Eke-62" value="" style="shape=partialRectangle;connectable=0;fillColor=none;top=0;left=0;bottom=0;right=0;editable=1;overflow=hidden;html=1;whiteSpace=wrap;fontSize=17;" parent="oiTHZw6a8BI90Ofq1Eke-61" vertex="1">
          <mxGeometry width="180" height="50" as="geometry">
            <mxRectangle width="180" height="50" as="alternateBounds" />
          </mxGeometry>
        </mxCell>
        <mxCell id="oiTHZw6a8BI90Ofq1Eke-63" value="Stage" style="shape=partialRectangle;connectable=0;fillColor=none;top=0;left=0;bottom=0;right=0;align=center;spacingLeft=6;overflow=hidden;html=1;whiteSpace=wrap;fontSize=17;" parent="oiTHZw6a8BI90Ofq1Eke-61" vertex="1">
          <mxGeometry x="180" width="160" height="50" as="geometry">
            <mxRectangle width="160" height="50" as="alternateBounds" />
          </mxGeometry>
        </mxCell>
        <mxCell id="oiTHZw6a8BI90Ofq1Eke-64" value="Educational Deputy" style="shape=table;startSize=30;container=1;collapsible=1;childLayout=tableLayout;fixedRows=1;rowLines=0;fontStyle=1;align=center;resizeLast=1;html=1;whiteSpace=wrap;fontSize=17;" parent="1" vertex="1">
          <mxGeometry x="220" y="1140" width="370" height="100" as="geometry" />
        </mxCell>
        <mxCell id="oiTHZw6a8BI90Ofq1Eke-65" value="" style="shape=tableRow;horizontal=0;startSize=0;swimlaneHead=0;swimlaneBody=0;fillColor=none;collapsible=0;dropTarget=0;points=[[0,0.5],[1,0.5]];portConstraint=eastwest;top=0;left=0;right=0;bottom=0;html=1;fontSize=17;" parent="oiTHZw6a8BI90Ofq1Eke-64" vertex="1">
          <mxGeometry y="30" width="370" height="35" as="geometry" />
        </mxCell>
        <mxCell id="oiTHZw6a8BI90Ofq1Eke-66" value="FK (1to1 with school)" style="shape=partialRectangle;connectable=0;fillColor=none;top=0;left=0;bottom=0;right=0;fontStyle=1;overflow=hidden;html=1;whiteSpace=wrap;fontSize=17;" parent="oiTHZw6a8BI90Ofq1Eke-65" vertex="1">
          <mxGeometry width="220" height="35" as="geometry">
            <mxRectangle width="220" height="35" as="alternateBounds" />
          </mxGeometry>
        </mxCell>
        <mxCell id="oiTHZw6a8BI90Ofq1Eke-67" value="School" style="shape=partialRectangle;connectable=0;fillColor=none;top=0;left=0;bottom=0;right=0;align=center;spacingLeft=6;fontStyle=5;overflow=hidden;html=1;whiteSpace=wrap;fontSize=17;" parent="oiTHZw6a8BI90Ofq1Eke-65" vertex="1">
          <mxGeometry x="220" width="150" height="35" as="geometry">
            <mxRectangle width="150" height="35" as="alternateBounds" />
          </mxGeometry>
        </mxCell>
        <mxCell id="oiTHZw6a8BI90Ofq1Eke-68" value="" style="shape=tableRow;horizontal=0;startSize=0;swimlaneHead=0;swimlaneBody=0;fillColor=none;collapsible=0;dropTarget=0;points=[[0,0.5],[1,0.5]];portConstraint=eastwest;top=0;left=0;right=0;bottom=1;html=1;fontSize=17;" parent="oiTHZw6a8BI90Ofq1Eke-64" vertex="1">
          <mxGeometry y="65" width="370" height="35" as="geometry" />
        </mxCell>
        <mxCell id="oiTHZw6a8BI90Ofq1Eke-69" value="FK(1to1 with Field)" style="shape=partialRectangle;connectable=0;fillColor=none;top=0;left=0;bottom=0;right=0;fontStyle=1;overflow=hidden;html=1;whiteSpace=wrap;fontSize=17;" parent="oiTHZw6a8BI90Ofq1Eke-68" vertex="1">
          <mxGeometry width="220" height="35" as="geometry">
            <mxRectangle width="220" height="35" as="alternateBounds" />
          </mxGeometry>
        </mxCell>
        <mxCell id="oiTHZw6a8BI90Ofq1Eke-70" value="&lt;b style=&quot;border-color: var(--border-color); font-size: 17px;&quot;&gt;&lt;u style=&quot;border-color: var(--border-color); font-size: 17px;&quot;&gt;Major&lt;/u&gt;&lt;/b&gt;" style="shape=partialRectangle;connectable=0;fillColor=none;top=0;left=0;bottom=0;right=0;align=center;spacingLeft=6;fontStyle=5;overflow=hidden;html=1;whiteSpace=wrap;fontSize=17;" parent="oiTHZw6a8BI90Ofq1Eke-68" vertex="1">
          <mxGeometry x="220" width="150" height="35" as="geometry">
            <mxRectangle width="150" height="35" as="alternateBounds" />
          </mxGeometry>
        </mxCell>
        <mxCell id="oiTHZw6a8BI90Ofq1Eke-71" value="&lt;span style=&quot;font-size: 17px;&quot;&gt;Course&lt;/span&gt;" style="shape=table;startSize=30;container=1;collapsible=1;childLayout=tableLayout;fixedRows=1;rowLines=0;fontStyle=1;align=center;resizeLast=1;html=1;whiteSpace=wrap;fontSize=17;" parent="1" vertex="1">
          <mxGeometry x="900" y="840" width="480" height="390" as="geometry" />
        </mxCell>
        <mxCell id="oiTHZw6a8BI90Ofq1Eke-72" value="" style="shape=tableRow;horizontal=0;startSize=0;swimlaneHead=0;swimlaneBody=0;fillColor=none;collapsible=0;dropTarget=0;points=[[0,0.5],[1,0.5]];portConstraint=eastwest;top=0;left=0;right=0;bottom=1;fontSize=17;" parent="oiTHZw6a8BI90Ofq1Eke-71" vertex="1">
          <mxGeometry y="30" width="480" height="40" as="geometry" />
        </mxCell>
        <mxCell id="oiTHZw6a8BI90Ofq1Eke-73" value="&lt;font style=&quot;font-size: 17px;&quot;&gt;PK&lt;/font&gt;" style="shape=partialRectangle;connectable=0;fillColor=none;top=0;left=0;bottom=0;right=0;fontStyle=1;overflow=hidden;whiteSpace=wrap;html=1;fontSize=17;" parent="oiTHZw6a8BI90Ofq1Eke-72" vertex="1">
          <mxGeometry width="240" height="40" as="geometry">
            <mxRectangle width="240" height="40" as="alternateBounds" />
          </mxGeometry>
        </mxCell>
        <mxCell id="oiTHZw6a8BI90Ofq1Eke-74" value="&lt;font style=&quot;font-size: 17px;&quot;&gt;Course_id&lt;/font&gt;" style="shape=partialRectangle;connectable=0;fillColor=none;top=0;left=0;bottom=0;right=0;align=left;spacingLeft=6;fontStyle=5;overflow=hidden;whiteSpace=wrap;html=1;fontSize=17;" parent="oiTHZw6a8BI90Ofq1Eke-72" vertex="1">
          <mxGeometry x="240" width="240" height="40" as="geometry">
            <mxRectangle width="240" height="40" as="alternateBounds" />
          </mxGeometry>
        </mxCell>
        <mxCell id="oiTHZw6a8BI90Ofq1Eke-75" value="" style="shape=tableRow;horizontal=0;startSize=0;swimlaneHead=0;swimlaneBody=0;fillColor=none;collapsible=0;dropTarget=0;points=[[0,0.5],[1,0.5]];portConstraint=eastwest;top=0;left=0;right=0;bottom=0;html=1;fontSize=17;" parent="oiTHZw6a8BI90Ofq1Eke-71" vertex="1">
          <mxGeometry y="70" width="480" height="50" as="geometry" />
        </mxCell>
        <mxCell id="oiTHZw6a8BI90Ofq1Eke-76" value="FK(MtoM School)" style="shape=partialRectangle;connectable=0;fillColor=none;top=0;left=0;bottom=0;right=0;fontStyle=1;overflow=hidden;html=1;whiteSpace=wrap;fontSize=17;" parent="oiTHZw6a8BI90Ofq1Eke-75" vertex="1">
          <mxGeometry width="240" height="50" as="geometry">
            <mxRectangle width="240" height="50" as="alternateBounds" />
          </mxGeometry>
        </mxCell>
        <mxCell id="oiTHZw6a8BI90Ofq1Eke-77" value="School" style="shape=partialRectangle;connectable=0;fillColor=none;top=0;left=0;bottom=0;right=0;align=left;spacingLeft=6;fontStyle=5;overflow=hidden;html=1;whiteSpace=wrap;fontSize=17;" parent="oiTHZw6a8BI90Ofq1Eke-75" vertex="1">
          <mxGeometry x="240" width="240" height="50" as="geometry">
            <mxRectangle width="240" height="50" as="alternateBounds" />
          </mxGeometry>
        </mxCell>
        <mxCell id="oiTHZw6a8BI90Ofq1Eke-78" value="" style="shape=tableRow;horizontal=0;startSize=0;swimlaneHead=0;swimlaneBody=0;fillColor=none;collapsible=0;dropTarget=0;points=[[0,0.5],[1,0.5]];portConstraint=eastwest;top=0;left=0;right=0;bottom=1;html=1;fontSize=17;" parent="oiTHZw6a8BI90Ofq1Eke-71" vertex="1">
          <mxGeometry y="120" width="480" height="60" as="geometry" />
        </mxCell>
        <mxCell id="oiTHZw6a8BI90Ofq1Eke-79" value="FK(Mto1 Course)" style="shape=partialRectangle;connectable=0;fillColor=none;top=0;left=0;bottom=0;right=0;fontStyle=1;overflow=hidden;html=1;whiteSpace=wrap;fontSize=17;" parent="oiTHZw6a8BI90Ofq1Eke-78" vertex="1">
          <mxGeometry width="240" height="60" as="geometry">
            <mxRectangle width="240" height="60" as="alternateBounds" />
          </mxGeometry>
        </mxCell>
        <mxCell id="oiTHZw6a8BI90Ofq1Eke-80" value="Prerequisites" style="shape=partialRectangle;connectable=0;fillColor=none;top=0;left=0;bottom=0;right=0;align=left;spacingLeft=6;fontStyle=5;overflow=hidden;html=1;whiteSpace=wrap;fontSize=17;" parent="oiTHZw6a8BI90Ofq1Eke-78" vertex="1">
          <mxGeometry x="240" width="240" height="60" as="geometry">
            <mxRectangle width="240" height="60" as="alternateBounds" />
          </mxGeometry>
        </mxCell>
        <mxCell id="oiTHZw6a8BI90Ofq1Eke-81" value="" style="shape=tableRow;horizontal=0;startSize=0;swimlaneHead=0;swimlaneBody=0;fillColor=none;collapsible=0;dropTarget=0;points=[[0,0.5],[1,0.5]];portConstraint=eastwest;top=0;left=0;right=0;bottom=1;html=1;fontSize=17;" parent="oiTHZw6a8BI90Ofq1Eke-71" vertex="1">
          <mxGeometry y="180" width="480" height="60" as="geometry" />
        </mxCell>
        <mxCell id="oiTHZw6a8BI90Ofq1Eke-82" value="FK(Mto1 Course)" style="shape=partialRectangle;connectable=0;fillColor=none;top=0;left=0;bottom=0;right=0;fontStyle=1;overflow=hidden;html=1;whiteSpace=wrap;fontSize=17;" parent="oiTHZw6a8BI90Ofq1Eke-81" vertex="1">
          <mxGeometry width="240" height="60" as="geometry">
            <mxRectangle width="240" height="60" as="alternateBounds" />
          </mxGeometry>
        </mxCell>
        <mxCell id="oiTHZw6a8BI90Ofq1Eke-83" value="Corequisites" style="shape=partialRectangle;connectable=0;fillColor=none;top=0;left=0;bottom=0;right=0;align=left;spacingLeft=6;fontStyle=5;overflow=hidden;html=1;whiteSpace=wrap;fontSize=17;" parent="oiTHZw6a8BI90Ofq1Eke-81" vertex="1">
          <mxGeometry x="240" width="240" height="60" as="geometry">
            <mxRectangle width="240" height="60" as="alternateBounds" />
          </mxGeometry>
        </mxCell>
        <mxCell id="oiTHZw6a8BI90Ofq1Eke-84" value="" style="shape=tableRow;horizontal=0;startSize=0;swimlaneHead=0;swimlaneBody=0;fillColor=none;collapsible=0;dropTarget=0;points=[[0,0.5],[1,0.5]];portConstraint=eastwest;top=0;left=0;right=0;bottom=0;html=1;fontSize=17;" parent="oiTHZw6a8BI90Ofq1Eke-71" vertex="1">
          <mxGeometry y="240" width="480" height="50" as="geometry" />
        </mxCell>
        <mxCell id="oiTHZw6a8BI90Ofq1Eke-85" value="" style="shape=partialRectangle;connectable=0;fillColor=none;top=0;left=0;bottom=0;right=0;editable=1;overflow=hidden;html=1;whiteSpace=wrap;fontSize=17;" parent="oiTHZw6a8BI90Ofq1Eke-84" vertex="1">
          <mxGeometry width="240" height="50" as="geometry">
            <mxRectangle width="240" height="50" as="alternateBounds" />
          </mxGeometry>
        </mxCell>
        <mxCell id="oiTHZw6a8BI90Ofq1Eke-86" value="Name" style="shape=partialRectangle;connectable=0;fillColor=none;top=0;left=0;bottom=0;right=0;align=left;spacingLeft=6;overflow=hidden;html=1;whiteSpace=wrap;fontSize=17;" parent="oiTHZw6a8BI90Ofq1Eke-84" vertex="1">
          <mxGeometry x="240" width="240" height="50" as="geometry">
            <mxRectangle width="240" height="50" as="alternateBounds" />
          </mxGeometry>
        </mxCell>
        <mxCell id="oiTHZw6a8BI90Ofq1Eke-87" value="" style="shape=tableRow;horizontal=0;startSize=0;swimlaneHead=0;swimlaneBody=0;fillColor=none;collapsible=0;dropTarget=0;points=[[0,0.5],[1,0.5]];portConstraint=eastwest;top=0;left=0;right=0;bottom=0;html=1;fontSize=17;" parent="oiTHZw6a8BI90Ofq1Eke-71" vertex="1">
          <mxGeometry y="290" width="480" height="50" as="geometry" />
        </mxCell>
        <mxCell id="oiTHZw6a8BI90Ofq1Eke-88" value="" style="shape=partialRectangle;connectable=0;fillColor=none;top=0;left=0;bottom=0;right=0;editable=1;overflow=hidden;html=1;whiteSpace=wrap;fontSize=17;" parent="oiTHZw6a8BI90Ofq1Eke-87" vertex="1">
          <mxGeometry width="240" height="50" as="geometry">
            <mxRectangle width="240" height="50" as="alternateBounds" />
          </mxGeometry>
        </mxCell>
        <mxCell id="oiTHZw6a8BI90Ofq1Eke-89" value="Credits" style="shape=partialRectangle;connectable=0;fillColor=none;top=0;left=0;bottom=0;right=0;align=left;spacingLeft=6;overflow=hidden;html=1;whiteSpace=wrap;fontSize=17;" parent="oiTHZw6a8BI90Ofq1Eke-87" vertex="1">
          <mxGeometry x="240" width="240" height="50" as="geometry">
            <mxRectangle width="240" height="50" as="alternateBounds" />
          </mxGeometry>
        </mxCell>
        <mxCell id="oiTHZw6a8BI90Ofq1Eke-90" value="" style="edgeStyle=entityRelationEdgeStyle;fontSize=17;html=1;endArrow=ERoneToMany;rounded=0;exitX=1;exitY=0.5;exitDx=0;exitDy=0;entryX=1;entryY=0.5;entryDx=0;entryDy=0;" parent="oiTHZw6a8BI90Ofq1Eke-71" source="oiTHZw6a8BI90Ofq1Eke-72" target="oiTHZw6a8BI90Ofq1Eke-78" edge="1">
          <mxGeometry width="100" height="100" relative="1" as="geometry">
            <mxPoint x="540" y="150" as="sourcePoint" />
            <mxPoint x="640" y="50" as="targetPoint" />
          </mxGeometry>
        </mxCell>
        <mxCell id="MB9ObGxGcaxl4uOhNXRl-2" value="" style="shape=tableRow;horizontal=0;startSize=0;swimlaneHead=0;swimlaneBody=0;fillColor=none;collapsible=0;dropTarget=0;points=[[0,0.5],[1,0.5]];portConstraint=eastwest;top=0;left=0;right=0;bottom=0;html=1;fontSize=17;" parent="oiTHZw6a8BI90Ofq1Eke-71" vertex="1">
          <mxGeometry y="340" width="480" height="50" as="geometry" />
        </mxCell>
        <mxCell id="MB9ObGxGcaxl4uOhNXRl-3" value="" style="shape=partialRectangle;connectable=0;fillColor=none;top=0;left=0;bottom=0;right=0;editable=1;overflow=hidden;html=1;whiteSpace=wrap;fontSize=17;" parent="MB9ObGxGcaxl4uOhNXRl-2" vertex="1">
          <mxGeometry width="240" height="50" as="geometry">
            <mxRectangle width="240" height="50" as="alternateBounds" />
          </mxGeometry>
        </mxCell>
        <mxCell id="MB9ObGxGcaxl4uOhNXRl-4" value="Type (Enum)" style="shape=partialRectangle;connectable=0;fillColor=none;top=0;left=0;bottom=0;right=0;align=left;spacingLeft=6;overflow=hidden;html=1;whiteSpace=wrap;fontSize=17;" parent="MB9ObGxGcaxl4uOhNXRl-2" vertex="1">
          <mxGeometry x="240" width="240" height="50" as="geometry">
            <mxRectangle width="240" height="50" as="alternateBounds" />
          </mxGeometry>
        </mxCell>
        <mxCell id="oiTHZw6a8BI90Ofq1Eke-91" value="&lt;font style=&quot;font-size: 17px;&quot;&gt;Termic Course&lt;/font&gt;" style="shape=table;startSize=40;container=1;collapsible=1;childLayout=tableLayout;fixedRows=1;rowLines=0;fontStyle=1;align=center;resizeLast=1;html=1;fontSize=17;" parent="1" vertex="1">
          <mxGeometry x="1570" y="200" width="360" height="470" as="geometry" />
        </mxCell>
        <mxCell id="oiTHZw6a8BI90Ofq1Eke-92" value="" style="shape=tableRow;horizontal=0;startSize=0;swimlaneHead=0;swimlaneBody=0;fillColor=none;collapsible=0;dropTarget=0;points=[[0,0.5],[1,0.5]];portConstraint=eastwest;top=0;left=0;right=0;bottom=1;fontSize=17;" parent="oiTHZw6a8BI90Ofq1Eke-91" vertex="1">
          <mxGeometry y="40" width="360" height="60" as="geometry" />
        </mxCell>
        <mxCell id="oiTHZw6a8BI90Ofq1Eke-93" value="PK" style="shape=partialRectangle;connectable=0;fillColor=none;top=0;left=0;bottom=0;right=0;fontStyle=1;overflow=hidden;whiteSpace=wrap;html=1;fontSize=17;" parent="oiTHZw6a8BI90Ofq1Eke-92" vertex="1">
          <mxGeometry width="180" height="60" as="geometry">
            <mxRectangle width="180" height="60" as="alternateBounds" />
          </mxGeometry>
        </mxCell>
        <mxCell id="oiTHZw6a8BI90Ofq1Eke-94" value="ID" style="shape=partialRectangle;connectable=0;fillColor=none;top=0;left=0;bottom=0;right=0;align=left;spacingLeft=6;fontStyle=5;overflow=hidden;whiteSpace=wrap;html=1;fontSize=17;" parent="oiTHZw6a8BI90Ofq1Eke-92" vertex="1">
          <mxGeometry x="180" width="180" height="60" as="geometry">
            <mxRectangle width="180" height="60" as="alternateBounds" />
          </mxGeometry>
        </mxCell>
        <mxCell id="oiTHZw6a8BI90Ofq1Eke-95" value="" style="shape=tableRow;horizontal=0;startSize=0;swimlaneHead=0;swimlaneBody=0;fillColor=none;collapsible=0;dropTarget=0;points=[[0,0.5],[1,0.5]];portConstraint=eastwest;top=0;left=0;right=0;bottom=0;fontSize=17;" parent="oiTHZw6a8BI90Ofq1Eke-91" vertex="1">
          <mxGeometry y="100" width="360" height="50" as="geometry" />
        </mxCell>
        <mxCell id="oiTHZw6a8BI90Ofq1Eke-96" value="&lt;b style=&quot;font-size: 17px;&quot;&gt;FK(MtoM Course)&lt;/b&gt;" style="shape=partialRectangle;connectable=0;fillColor=none;top=0;left=0;bottom=0;right=0;editable=1;overflow=hidden;whiteSpace=wrap;html=1;fontSize=17;" parent="oiTHZw6a8BI90Ofq1Eke-95" vertex="1">
          <mxGeometry width="180" height="50" as="geometry">
            <mxRectangle width="180" height="50" as="alternateBounds" />
          </mxGeometry>
        </mxCell>
        <mxCell id="oiTHZw6a8BI90Ofq1Eke-97" value="&lt;b style=&quot;font-size: 17px;&quot;&gt;&lt;u style=&quot;font-size: 17px;&quot;&gt;Professor&lt;/u&gt;&lt;/b&gt;" style="shape=partialRectangle;connectable=0;fillColor=none;top=0;left=0;bottom=0;right=0;align=left;spacingLeft=6;overflow=hidden;whiteSpace=wrap;html=1;fontSize=17;" parent="oiTHZw6a8BI90Ofq1Eke-95" vertex="1">
          <mxGeometry x="180" width="180" height="50" as="geometry">
            <mxRectangle width="180" height="50" as="alternateBounds" />
          </mxGeometry>
        </mxCell>
        <mxCell id="oiTHZw6a8BI90Ofq1Eke-98" value="" style="shape=tableRow;horizontal=0;startSize=0;swimlaneHead=0;swimlaneBody=0;fillColor=none;collapsible=0;dropTarget=0;points=[[0,0.5],[1,0.5]];portConstraint=eastwest;top=0;left=0;right=0;bottom=0;fontSize=17;" parent="oiTHZw6a8BI90Ofq1Eke-91" vertex="1">
          <mxGeometry y="150" width="360" height="50" as="geometry" />
        </mxCell>
        <mxCell id="oiTHZw6a8BI90Ofq1Eke-99" value="&lt;b style=&quot;font-size: 17px;&quot;&gt;FK(Mto1 Course)&lt;/b&gt;" style="shape=partialRectangle;connectable=0;fillColor=none;top=0;left=0;bottom=0;right=0;editable=1;overflow=hidden;whiteSpace=wrap;html=1;fontSize=17;" parent="oiTHZw6a8BI90Ofq1Eke-98" vertex="1">
          <mxGeometry width="180" height="50" as="geometry">
            <mxRectangle width="180" height="50" as="alternateBounds" />
          </mxGeometry>
        </mxCell>
        <mxCell id="oiTHZw6a8BI90Ofq1Eke-100" value="&lt;b style=&quot;font-size: 17px;&quot;&gt;&lt;u style=&quot;font-size: 17px;&quot;&gt;Course_id&lt;/u&gt;&lt;/b&gt;" style="shape=partialRectangle;connectable=0;fillColor=none;top=0;left=0;bottom=0;right=0;align=left;spacingLeft=6;overflow=hidden;whiteSpace=wrap;html=1;fontSize=17;" parent="oiTHZw6a8BI90Ofq1Eke-98" vertex="1">
          <mxGeometry x="180" width="180" height="50" as="geometry">
            <mxRectangle width="180" height="50" as="alternateBounds" />
          </mxGeometry>
        </mxCell>
        <mxCell id="oiTHZw6a8BI90Ofq1Eke-113" value="" style="shape=tableRow;horizontal=0;startSize=0;swimlaneHead=0;swimlaneBody=0;fillColor=none;collapsible=0;dropTarget=0;points=[[0,0.5],[1,0.5]];portConstraint=eastwest;top=0;left=0;right=0;bottom=0;fontSize=17;" parent="oiTHZw6a8BI90Ofq1Eke-91" vertex="1">
          <mxGeometry y="200" width="360" height="60" as="geometry" />
        </mxCell>
        <mxCell id="oiTHZw6a8BI90Ofq1Eke-114" value="&lt;b style=&quot;font-size: 17px;&quot;&gt;FK(Mto1)&lt;/b&gt;" style="shape=partialRectangle;connectable=0;fillColor=none;top=0;left=0;bottom=0;right=0;editable=1;overflow=hidden;whiteSpace=wrap;html=1;fontSize=17;" parent="oiTHZw6a8BI90Ofq1Eke-113" vertex="1">
          <mxGeometry width="180" height="60" as="geometry">
            <mxRectangle width="180" height="60" as="alternateBounds" />
          </mxGeometry>
        </mxCell>
        <mxCell id="oiTHZw6a8BI90Ofq1Eke-115" value="&lt;b style=&quot;font-size: 17px;&quot;&gt;&lt;u style=&quot;font-size: 17px;&quot;&gt;Term_id&lt;/u&gt;&lt;/b&gt;" style="shape=partialRectangle;connectable=0;fillColor=none;top=0;left=0;bottom=0;right=0;align=left;spacingLeft=6;overflow=hidden;whiteSpace=wrap;html=1;fontSize=17;" parent="oiTHZw6a8BI90Ofq1Eke-113" vertex="1">
          <mxGeometry x="180" width="180" height="60" as="geometry">
            <mxRectangle width="180" height="60" as="alternateBounds" />
          </mxGeometry>
        </mxCell>
        <mxCell id="oiTHZw6a8BI90Ofq1Eke-101" value="" style="shape=tableRow;horizontal=0;startSize=0;swimlaneHead=0;swimlaneBody=0;fillColor=none;collapsible=0;dropTarget=0;points=[[0,0.5],[1,0.5]];portConstraint=eastwest;top=0;left=0;right=0;bottom=0;fontSize=17;verticalAlign=middle;" parent="oiTHZw6a8BI90Ofq1Eke-91" vertex="1">
          <mxGeometry y="260" width="360" height="50" as="geometry" />
        </mxCell>
        <mxCell id="oiTHZw6a8BI90Ofq1Eke-102" value="" style="shape=partialRectangle;connectable=0;fillColor=none;top=0;left=0;bottom=0;right=0;editable=1;overflow=hidden;whiteSpace=wrap;html=1;fontSize=17;" parent="oiTHZw6a8BI90Ofq1Eke-101" vertex="1">
          <mxGeometry width="180" height="50" as="geometry">
            <mxRectangle width="180" height="50" as="alternateBounds" />
          </mxGeometry>
        </mxCell>
        <mxCell id="oiTHZw6a8BI90Ofq1Eke-103" value="Class_date_time" style="shape=partialRectangle;connectable=0;fillColor=none;top=0;left=0;bottom=0;right=0;align=left;spacingLeft=6;overflow=hidden;whiteSpace=wrap;html=1;fontSize=17;" parent="oiTHZw6a8BI90Ofq1Eke-101" vertex="1">
          <mxGeometry x="180" width="180" height="50" as="geometry">
            <mxRectangle width="180" height="50" as="alternateBounds" />
          </mxGeometry>
        </mxCell>
        <mxCell id="oiTHZw6a8BI90Ofq1Eke-104" value="" style="shape=tableRow;horizontal=0;startSize=0;swimlaneHead=0;swimlaneBody=0;fillColor=none;collapsible=0;dropTarget=0;points=[[0,0.5],[1,0.5]];portConstraint=eastwest;top=0;left=0;right=0;bottom=0;fontSize=17;" parent="oiTHZw6a8BI90Ofq1Eke-91" vertex="1">
          <mxGeometry y="310" width="360" height="50" as="geometry" />
        </mxCell>
        <mxCell id="oiTHZw6a8BI90Ofq1Eke-105" value="" style="shape=partialRectangle;connectable=0;fillColor=none;top=0;left=0;bottom=0;right=0;editable=1;overflow=hidden;whiteSpace=wrap;html=1;fontSize=17;" parent="oiTHZw6a8BI90Ofq1Eke-104" vertex="1">
          <mxGeometry width="180" height="50" as="geometry">
            <mxRectangle width="180" height="50" as="alternateBounds" />
          </mxGeometry>
        </mxCell>
        <mxCell id="oiTHZw6a8BI90Ofq1Eke-106" value="Exam_date_time" style="shape=partialRectangle;connectable=0;fillColor=none;top=0;left=0;bottom=0;right=0;align=left;spacingLeft=6;overflow=hidden;whiteSpace=wrap;html=1;fontSize=17;" parent="oiTHZw6a8BI90Ofq1Eke-104" vertex="1">
          <mxGeometry x="180" width="180" height="50" as="geometry">
            <mxRectangle width="180" height="50" as="alternateBounds" />
          </mxGeometry>
        </mxCell>
        <mxCell id="oiTHZw6a8BI90Ofq1Eke-107" value="" style="shape=tableRow;horizontal=0;startSize=0;swimlaneHead=0;swimlaneBody=0;fillColor=none;collapsible=0;dropTarget=0;points=[[0,0.5],[1,0.5]];portConstraint=eastwest;top=0;left=0;right=0;bottom=0;fontSize=17;" parent="oiTHZw6a8BI90Ofq1Eke-91" vertex="1">
          <mxGeometry y="360" width="360" height="60" as="geometry" />
        </mxCell>
        <mxCell id="oiTHZw6a8BI90Ofq1Eke-108" value="" style="shape=partialRectangle;connectable=0;fillColor=none;top=0;left=0;bottom=0;right=0;editable=1;overflow=hidden;whiteSpace=wrap;html=1;fontSize=17;" parent="oiTHZw6a8BI90Ofq1Eke-107" vertex="1">
          <mxGeometry width="180" height="60" as="geometry">
            <mxRectangle width="180" height="60" as="alternateBounds" />
          </mxGeometry>
        </mxCell>
        <mxCell id="oiTHZw6a8BI90Ofq1Eke-109" value="Exam_site" style="shape=partialRectangle;connectable=0;fillColor=none;top=0;left=0;bottom=0;right=0;align=left;spacingLeft=6;overflow=hidden;whiteSpace=wrap;html=1;fontSize=17;" parent="oiTHZw6a8BI90Ofq1Eke-107" vertex="1">
          <mxGeometry x="180" width="180" height="60" as="geometry">
            <mxRectangle width="180" height="60" as="alternateBounds" />
          </mxGeometry>
        </mxCell>
        <mxCell id="oiTHZw6a8BI90Ofq1Eke-110" value="" style="shape=tableRow;horizontal=0;startSize=0;swimlaneHead=0;swimlaneBody=0;fillColor=none;collapsible=0;dropTarget=0;points=[[0,0.5],[1,0.5]];portConstraint=eastwest;top=0;left=0;right=0;bottom=0;fontSize=17;" parent="oiTHZw6a8BI90Ofq1Eke-91" vertex="1">
          <mxGeometry y="420" width="360" height="50" as="geometry" />
        </mxCell>
        <mxCell id="oiTHZw6a8BI90Ofq1Eke-111" value="" style="shape=partialRectangle;connectable=0;fillColor=none;top=0;left=0;bottom=0;right=0;editable=1;overflow=hidden;whiteSpace=wrap;html=1;fontSize=17;" parent="oiTHZw6a8BI90Ofq1Eke-110" vertex="1">
          <mxGeometry width="180" height="50" as="geometry">
            <mxRectangle width="180" height="50" as="alternateBounds" />
          </mxGeometry>
        </mxCell>
        <mxCell id="oiTHZw6a8BI90Ofq1Eke-112" value="Capacity" style="shape=partialRectangle;connectable=0;fillColor=none;top=0;left=0;bottom=0;right=0;align=left;spacingLeft=6;overflow=hidden;whiteSpace=wrap;html=1;fontSize=17;" parent="oiTHZw6a8BI90Ofq1Eke-110" vertex="1">
          <mxGeometry x="180" width="180" height="50" as="geometry">
            <mxRectangle width="180" height="50" as="alternateBounds" />
          </mxGeometry>
        </mxCell>
        <mxCell id="oiTHZw6a8BI90Ofq1Eke-116" value="" style="edgeStyle=entityRelationEdgeStyle;fontSize=17;html=1;endArrow=ERmandOne;startArrow=ERmandOne;rounded=0;entryX=0;entryY=0.5;entryDx=0;entryDy=0;exitX=1;exitY=0;exitDx=0;exitDy=0;" parent="1" source="oiTHZw6a8BI90Ofq1Eke-71" target="oiTHZw6a8BI90Ofq1Eke-98" edge="1">
          <mxGeometry width="100" height="100" relative="1" as="geometry">
            <mxPoint x="1180" y="703" as="sourcePoint" />
            <mxPoint x="360" y="800" as="targetPoint" />
          </mxGeometry>
        </mxCell>
        <mxCell id="oiTHZw6a8BI90Ofq1Eke-117" value="" style="edgeStyle=entityRelationEdgeStyle;fontSize=17;html=1;endArrow=ERoneToMany;rounded=0;entryX=1;entryY=0.5;entryDx=0;entryDy=0;exitX=1;exitY=0.5;exitDx=0;exitDy=0;" parent="1" source="oiTHZw6a8BI90Ofq1Eke-72" target="oiTHZw6a8BI90Ofq1Eke-81" edge="1">
          <mxGeometry width="100" height="100" relative="1" as="geometry">
            <mxPoint x="310" y="1005" as="sourcePoint" />
            <mxPoint x="310" y="765" as="targetPoint" />
            <Array as="points">
              <mxPoint x="245" y="755" />
              <mxPoint x="135" y="785" />
              <mxPoint x="290" y="725" />
            </Array>
          </mxGeometry>
        </mxCell>
        <mxCell id="oiTHZw6a8BI90Ofq1Eke-118" value="" style="edgeStyle=entityRelationEdgeStyle;fontSize=17;html=1;endArrow=ERmandOne;startArrow=ERmandOne;rounded=0;entryX=1;entryY=0.5;entryDx=0;entryDy=0;exitX=0;exitY=0.5;exitDx=0;exitDy=0;" parent="1" source="oiTHZw6a8BI90Ofq1Eke-21" target="oiTHZw6a8BI90Ofq1Eke-327" edge="1">
          <mxGeometry width="100" height="100" relative="1" as="geometry">
            <mxPoint x="260" y="360" as="sourcePoint" />
            <mxPoint x="360" y="260" as="targetPoint" />
          </mxGeometry>
        </mxCell>
        <mxCell id="oiTHZw6a8BI90Ofq1Eke-119" value="" style="edgeStyle=entityRelationEdgeStyle;fontSize=17;html=1;endArrow=ERmandOne;startArrow=ERmandOne;rounded=0;entryX=1;entryY=0.5;entryDx=0;entryDy=0;exitX=0;exitY=0.5;exitDx=0;exitDy=0;" parent="1" source="oiTHZw6a8BI90Ofq1Eke-2" target="oiTHZw6a8BI90Ofq1Eke-327" edge="1">
          <mxGeometry width="100" height="100" relative="1" as="geometry">
            <mxPoint x="280" y="530" as="sourcePoint" />
            <mxPoint x="380" y="430" as="targetPoint" />
          </mxGeometry>
        </mxCell>
        <mxCell id="oiTHZw6a8BI90Ofq1Eke-120" value="IT - Manger" style="shape=table;startSize=30;container=1;collapsible=1;childLayout=tableLayout;fixedRows=1;rowLines=0;fontStyle=1;align=center;resizeLast=1;html=1;whiteSpace=wrap;fontSize=17;" parent="1" vertex="1">
          <mxGeometry x="-60" y="-170" width="280" height="70" as="geometry" />
        </mxCell>
        <mxCell id="oiTHZw6a8BI90Ofq1Eke-121" value="" style="shape=tableRow;horizontal=0;startSize=0;swimlaneHead=0;swimlaneBody=0;fillColor=none;collapsible=0;dropTarget=0;points=[[0,0.5],[1,0.5]];portConstraint=eastwest;top=0;left=0;right=0;bottom=0;html=1;fontSize=17;" parent="oiTHZw6a8BI90Ofq1Eke-120" vertex="1">
          <mxGeometry y="30" width="280" height="40" as="geometry" />
        </mxCell>
        <mxCell id="oiTHZw6a8BI90Ofq1Eke-122" value="PK, FK (1to1)" style="shape=partialRectangle;connectable=0;fillColor=none;top=0;left=0;bottom=0;right=0;fontStyle=1;overflow=hidden;html=1;whiteSpace=wrap;fontSize=17;" parent="oiTHZw6a8BI90Ofq1Eke-121" vertex="1">
          <mxGeometry width="139.99999999999955" height="40" as="geometry">
            <mxRectangle width="139.99999999999955" height="40" as="alternateBounds" />
          </mxGeometry>
        </mxCell>
        <mxCell id="oiTHZw6a8BI90Ofq1Eke-123" value="User_id" style="shape=partialRectangle;connectable=0;fillColor=none;top=0;left=0;bottom=0;right=0;align=center;spacingLeft=6;fontStyle=5;overflow=hidden;html=1;whiteSpace=wrap;fontSize=17;" parent="oiTHZw6a8BI90Ofq1Eke-121" vertex="1">
          <mxGeometry x="139.99999999999955" width="140.00000000000045" height="40" as="geometry">
            <mxRectangle width="140.00000000000045" height="40" as="alternateBounds" />
          </mxGeometry>
        </mxCell>
        <mxCell id="oiTHZw6a8BI90Ofq1Eke-124" value="" style="edgeStyle=entityRelationEdgeStyle;fontSize=17;html=1;endArrow=ERmandOne;startArrow=ERmandOne;rounded=0;exitX=1;exitY=0.5;exitDx=0;exitDy=0;entryX=0;entryY=0.5;entryDx=0;entryDy=0;strokeColor=default;" parent="1" source="oiTHZw6a8BI90Ofq1Eke-327" target="oiTHZw6a8BI90Ofq1Eke-121" edge="1">
          <mxGeometry width="100" height="100" relative="1" as="geometry">
            <mxPoint x="280" y="400" as="sourcePoint" />
            <mxPoint x="380" y="300" as="targetPoint" />
            <Array as="points">
              <mxPoint x="60" y="-20" />
            </Array>
          </mxGeometry>
        </mxCell>
        <mxCell id="oiTHZw6a8BI90Ofq1Eke-125" value="School" style="shape=table;startSize=30;container=1;collapsible=1;childLayout=tableLayout;fixedRows=1;rowLines=0;fontStyle=1;align=center;resizeLast=1;html=1;fontSize=17;" parent="1" vertex="1">
          <mxGeometry x="360" y="810" width="240" height="90" as="geometry" />
        </mxCell>
        <mxCell id="oiTHZw6a8BI90Ofq1Eke-126" value="" style="shape=tableRow;horizontal=0;startSize=0;swimlaneHead=0;swimlaneBody=0;fillColor=none;collapsible=0;dropTarget=0;points=[[0,0.5],[1,0.5]];portConstraint=eastwest;top=0;left=0;right=0;bottom=1;fontSize=17;" parent="oiTHZw6a8BI90Ofq1Eke-125" vertex="1">
          <mxGeometry y="30" width="240" height="30" as="geometry" />
        </mxCell>
        <mxCell id="oiTHZw6a8BI90Ofq1Eke-127" value="PK" style="shape=partialRectangle;connectable=0;fillColor=none;top=0;left=0;bottom=0;right=0;fontStyle=1;overflow=hidden;whiteSpace=wrap;html=1;fontSize=17;" parent="oiTHZw6a8BI90Ofq1Eke-126" vertex="1">
          <mxGeometry width="50" height="30" as="geometry">
            <mxRectangle width="50" height="30" as="alternateBounds" />
          </mxGeometry>
        </mxCell>
        <mxCell id="oiTHZw6a8BI90Ofq1Eke-128" value="UniqueID" style="shape=partialRectangle;connectable=0;fillColor=none;top=0;left=0;bottom=0;right=0;align=left;spacingLeft=6;fontStyle=5;overflow=hidden;whiteSpace=wrap;html=1;fontSize=17;" parent="oiTHZw6a8BI90Ofq1Eke-126" vertex="1">
          <mxGeometry x="50" width="190" height="30" as="geometry">
            <mxRectangle width="190" height="30" as="alternateBounds" />
          </mxGeometry>
        </mxCell>
        <mxCell id="oiTHZw6a8BI90Ofq1Eke-129" value="" style="shape=tableRow;horizontal=0;startSize=0;swimlaneHead=0;swimlaneBody=0;fillColor=none;collapsible=0;dropTarget=0;points=[[0,0.5],[1,0.5]];portConstraint=eastwest;top=0;left=0;right=0;bottom=0;fontSize=17;" parent="oiTHZw6a8BI90Ofq1Eke-125" vertex="1">
          <mxGeometry y="60" width="240" height="30" as="geometry" />
        </mxCell>
        <mxCell id="oiTHZw6a8BI90Ofq1Eke-130" value="" style="shape=partialRectangle;connectable=0;fillColor=none;top=0;left=0;bottom=0;right=0;editable=1;overflow=hidden;whiteSpace=wrap;html=1;fontSize=17;" parent="oiTHZw6a8BI90Ofq1Eke-129" vertex="1">
          <mxGeometry width="50" height="30" as="geometry">
            <mxRectangle width="50" height="30" as="alternateBounds" />
          </mxGeometry>
        </mxCell>
        <mxCell id="oiTHZw6a8BI90Ofq1Eke-131" value="Name" style="shape=partialRectangle;connectable=0;fillColor=none;top=0;left=0;bottom=0;right=0;align=left;spacingLeft=6;overflow=hidden;whiteSpace=wrap;html=1;fontSize=17;" parent="oiTHZw6a8BI90Ofq1Eke-129" vertex="1">
          <mxGeometry x="50" width="190" height="30" as="geometry">
            <mxRectangle width="190" height="30" as="alternateBounds" />
          </mxGeometry>
        </mxCell>
        <mxCell id="oiTHZw6a8BI90Ofq1Eke-132" value="" style="edgeStyle=entityRelationEdgeStyle;fontSize=17;html=1;endArrow=ERoneToMany;rounded=0;entryX=1;entryY=0;entryDx=0;entryDy=0;exitX=0;exitY=0.25;exitDx=0;exitDy=0;" parent="1" source="oiTHZw6a8BI90Ofq1Eke-125" target="oiTHZw6a8BI90Ofq1Eke-48" edge="1">
          <mxGeometry width="100" height="100" relative="1" as="geometry">
            <mxPoint x="450" y="659" as="sourcePoint" />
            <mxPoint x="-260" y="610" as="targetPoint" />
          </mxGeometry>
        </mxCell>
        <mxCell id="oiTHZw6a8BI90Ofq1Eke-134" value="" style="edgeStyle=entityRelationEdgeStyle;fontSize=17;html=1;endArrow=ERmandOne;startArrow=ERmandOne;rounded=0;exitX=1;exitY=0.5;exitDx=0;exitDy=0;entryX=0;entryY=0.5;entryDx=0;entryDy=0;" parent="1" source="oiTHZw6a8BI90Ofq1Eke-49" target="oiTHZw6a8BI90Ofq1Eke-68" edge="1">
          <mxGeometry width="100" height="100" relative="1" as="geometry">
            <mxPoint x="280" y="820" as="sourcePoint" />
            <mxPoint x="380" y="720" as="targetPoint" />
          </mxGeometry>
        </mxCell>
        <mxCell id="oiTHZw6a8BI90Ofq1Eke-135" value="Enrollments(Course_student)" style="shape=table;startSize=30;container=1;collapsible=1;childLayout=tableLayout;fixedRows=1;rowLines=0;fontStyle=1;align=center;resizeLast=1;html=1;fontSize=17;" parent="1" vertex="1">
          <mxGeometry x="905" y="494" width="415" height="300" as="geometry" />
        </mxCell>
        <mxCell id="oiTHZw6a8BI90Ofq1Eke-136" value="" style="shape=tableRow;horizontal=0;startSize=0;swimlaneHead=0;swimlaneBody=0;fillColor=none;collapsible=0;dropTarget=0;points=[[0,0.5],[1,0.5]];portConstraint=eastwest;top=0;left=0;right=0;bottom=1;fontSize=17;" parent="oiTHZw6a8BI90Ofq1Eke-135" vertex="1">
          <mxGeometry y="30" width="415" height="40" as="geometry" />
        </mxCell>
        <mxCell id="oiTHZw6a8BI90Ofq1Eke-137" value="PK" style="shape=partialRectangle;connectable=0;fillColor=none;top=0;left=0;bottom=0;right=0;fontStyle=1;overflow=hidden;whiteSpace=wrap;html=1;fontSize=17;" parent="oiTHZw6a8BI90Ofq1Eke-136" vertex="1">
          <mxGeometry width="245" height="40" as="geometry">
            <mxRectangle width="245" height="40" as="alternateBounds" />
          </mxGeometry>
        </mxCell>
        <mxCell id="oiTHZw6a8BI90Ofq1Eke-138" value="unique_id" style="shape=partialRectangle;connectable=0;fillColor=none;top=0;left=0;bottom=0;right=0;align=left;spacingLeft=6;fontStyle=5;overflow=hidden;whiteSpace=wrap;html=1;fontSize=17;" parent="oiTHZw6a8BI90Ofq1Eke-136" vertex="1">
          <mxGeometry x="245" width="170" height="40" as="geometry">
            <mxRectangle width="170" height="40" as="alternateBounds" />
          </mxGeometry>
        </mxCell>
        <mxCell id="oiTHZw6a8BI90Ofq1Eke-139" value="" style="shape=tableRow;horizontal=0;startSize=0;swimlaneHead=0;swimlaneBody=0;fillColor=none;collapsible=0;dropTarget=0;points=[[0,0.5],[1,0.5]];portConstraint=eastwest;top=0;left=0;right=0;bottom=1;fontSize=17;" parent="oiTHZw6a8BI90Ofq1Eke-135" vertex="1">
          <mxGeometry y="70" width="415" height="50" as="geometry" />
        </mxCell>
        <mxCell id="oiTHZw6a8BI90Ofq1Eke-140" value="FK(Mto1 with Student)" style="shape=partialRectangle;connectable=0;fillColor=none;top=0;left=0;bottom=0;right=0;fontStyle=1;overflow=hidden;whiteSpace=wrap;html=1;fontSize=17;" parent="oiTHZw6a8BI90Ofq1Eke-139" vertex="1">
          <mxGeometry width="245" height="50" as="geometry">
            <mxRectangle width="245" height="50" as="alternateBounds" />
          </mxGeometry>
        </mxCell>
        <mxCell id="oiTHZw6a8BI90Ofq1Eke-141" value="Student_ID" style="shape=partialRectangle;connectable=0;fillColor=none;top=0;left=0;bottom=0;right=0;align=left;spacingLeft=6;fontStyle=5;overflow=hidden;whiteSpace=wrap;html=1;fontSize=17;" parent="oiTHZw6a8BI90Ofq1Eke-139" vertex="1">
          <mxGeometry x="245" width="170" height="50" as="geometry">
            <mxRectangle width="170" height="50" as="alternateBounds" />
          </mxGeometry>
        </mxCell>
        <mxCell id="oiTHZw6a8BI90Ofq1Eke-142" value="" style="shape=tableRow;horizontal=0;startSize=0;swimlaneHead=0;swimlaneBody=0;fillColor=none;collapsible=0;dropTarget=0;points=[[0,0.5],[1,0.5]];portConstraint=eastwest;top=0;left=0;right=0;bottom=1;fontSize=17;" parent="oiTHZw6a8BI90Ofq1Eke-135" vertex="1">
          <mxGeometry y="120" width="415" height="40" as="geometry" />
        </mxCell>
        <mxCell id="oiTHZw6a8BI90Ofq1Eke-143" value="FK(Mto1 with Course)" style="shape=partialRectangle;connectable=0;fillColor=none;top=0;left=0;bottom=0;right=0;fontStyle=1;overflow=hidden;whiteSpace=wrap;html=1;fontSize=17;" parent="oiTHZw6a8BI90Ofq1Eke-142" vertex="1">
          <mxGeometry width="245" height="40" as="geometry">
            <mxRectangle width="245" height="40" as="alternateBounds" />
          </mxGeometry>
        </mxCell>
        <mxCell id="oiTHZw6a8BI90Ofq1Eke-144" value="Course_ID" style="shape=partialRectangle;connectable=0;fillColor=none;top=0;left=0;bottom=0;right=0;align=left;spacingLeft=6;fontStyle=5;overflow=hidden;whiteSpace=wrap;html=1;fontSize=17;" parent="oiTHZw6a8BI90Ofq1Eke-142" vertex="1">
          <mxGeometry x="245" width="170" height="40" as="geometry">
            <mxRectangle width="170" height="40" as="alternateBounds" />
          </mxGeometry>
        </mxCell>
        <mxCell id="oiTHZw6a8BI90Ofq1Eke-145" value="" style="shape=tableRow;horizontal=0;startSize=0;swimlaneHead=0;swimlaneBody=0;fillColor=none;collapsible=0;dropTarget=0;points=[[0,0.5],[1,0.5]];portConstraint=eastwest;top=0;left=0;right=0;bottom=1;fontSize=17;" parent="oiTHZw6a8BI90Ofq1Eke-135" vertex="1">
          <mxGeometry y="160" width="415" height="40" as="geometry" />
        </mxCell>
        <mxCell id="oiTHZw6a8BI90Ofq1Eke-146" value="FK(Mto1 with term)" style="shape=partialRectangle;connectable=0;fillColor=none;top=0;left=0;bottom=0;right=0;fontStyle=1;overflow=hidden;whiteSpace=wrap;html=1;fontSize=17;" parent="oiTHZw6a8BI90Ofq1Eke-145" vertex="1">
          <mxGeometry width="245" height="40" as="geometry">
            <mxRectangle width="245" height="40" as="alternateBounds" />
          </mxGeometry>
        </mxCell>
        <mxCell id="oiTHZw6a8BI90Ofq1Eke-147" value="Taken_term" style="shape=partialRectangle;connectable=0;fillColor=none;top=0;left=0;bottom=0;right=0;align=left;spacingLeft=6;fontStyle=5;overflow=hidden;whiteSpace=wrap;html=1;fontSize=17;" parent="oiTHZw6a8BI90Ofq1Eke-145" vertex="1">
          <mxGeometry x="245" width="170" height="40" as="geometry">
            <mxRectangle width="170" height="40" as="alternateBounds" />
          </mxGeometry>
        </mxCell>
        <mxCell id="oiTHZw6a8BI90Ofq1Eke-148" value="" style="shape=tableRow;horizontal=0;startSize=0;swimlaneHead=0;swimlaneBody=0;fillColor=none;collapsible=0;dropTarget=0;points=[[0,0.5],[1,0.5]];portConstraint=eastwest;top=0;left=0;right=0;bottom=0;fontSize=17;" parent="oiTHZw6a8BI90Ofq1Eke-135" vertex="1">
          <mxGeometry y="200" width="415" height="50" as="geometry" />
        </mxCell>
        <mxCell id="oiTHZw6a8BI90Ofq1Eke-149" value="" style="shape=partialRectangle;connectable=0;fillColor=none;top=0;left=0;bottom=0;right=0;editable=1;overflow=hidden;whiteSpace=wrap;html=1;fontSize=17;" parent="oiTHZw6a8BI90Ofq1Eke-148" vertex="1">
          <mxGeometry width="245" height="50" as="geometry">
            <mxRectangle width="245" height="50" as="alternateBounds" />
          </mxGeometry>
        </mxCell>
        <mxCell id="oiTHZw6a8BI90Ofq1Eke-150" value="Course_condition" style="shape=partialRectangle;connectable=0;fillColor=none;top=0;left=0;bottom=0;right=0;align=left;spacingLeft=6;overflow=hidden;whiteSpace=wrap;html=1;fontSize=17;" parent="oiTHZw6a8BI90Ofq1Eke-148" vertex="1">
          <mxGeometry x="245" width="170" height="50" as="geometry">
            <mxRectangle width="170" height="50" as="alternateBounds" />
          </mxGeometry>
        </mxCell>
        <mxCell id="oiTHZw6a8BI90Ofq1Eke-151" value="" style="shape=tableRow;horizontal=0;startSize=0;swimlaneHead=0;swimlaneBody=0;fillColor=none;collapsible=0;dropTarget=0;points=[[0,0.5],[1,0.5]];portConstraint=eastwest;top=0;left=0;right=0;bottom=0;fontSize=17;" parent="oiTHZw6a8BI90Ofq1Eke-135" vertex="1">
          <mxGeometry y="250" width="415" height="50" as="geometry" />
        </mxCell>
        <mxCell id="oiTHZw6a8BI90Ofq1Eke-152" value="" style="shape=partialRectangle;connectable=0;fillColor=none;top=0;left=0;bottom=0;right=0;editable=1;overflow=hidden;whiteSpace=wrap;html=1;fontSize=17;" parent="oiTHZw6a8BI90Ofq1Eke-151" vertex="1">
          <mxGeometry width="245" height="50" as="geometry">
            <mxRectangle width="245" height="50" as="alternateBounds" />
          </mxGeometry>
        </mxCell>
        <mxCell id="oiTHZw6a8BI90Ofq1Eke-153" value="Student_grade" style="shape=partialRectangle;connectable=0;fillColor=none;top=0;left=0;bottom=0;right=0;align=left;spacingLeft=6;overflow=hidden;whiteSpace=wrap;html=1;fontSize=17;" parent="oiTHZw6a8BI90Ofq1Eke-151" vertex="1">
          <mxGeometry x="245" width="170" height="50" as="geometry">
            <mxRectangle width="170" height="50" as="alternateBounds" />
          </mxGeometry>
        </mxCell>
        <mxCell id="oiTHZw6a8BI90Ofq1Eke-154" value="" style="fontSize=17;html=1;endArrow=ERoneToMany;rounded=0;entryX=-0.005;entryY=0.744;entryDx=0;entryDy=0;movable=1;resizable=1;rotatable=1;deletable=1;editable=1;locked=0;connectable=1;strokeColor=default;edgeStyle=orthogonalEdgeStyle;elbow=vertical;exitX=0;exitY=0.5;exitDx=0;exitDy=0;curved=1;entryPerimeter=0;" parent="1" source="oiTHZw6a8BI90Ofq1Eke-126" target="oiTHZw6a8BI90Ofq1Eke-2" edge="1">
          <mxGeometry width="100" height="100" relative="1" as="geometry">
            <mxPoint x="300" y="817.5" as="sourcePoint" />
            <mxPoint x="390" y="180" as="targetPoint" />
          </mxGeometry>
        </mxCell>
        <mxCell id="oiTHZw6a8BI90Ofq1Eke-155" value="" style="edgeStyle=entityRelationEdgeStyle;fontSize=17;html=1;endArrow=ERmany;startArrow=ERmany;rounded=0;entryX=0;entryY=0.5;entryDx=0;entryDy=0;exitX=1;exitY=0.5;exitDx=0;exitDy=0;" parent="1" source="oiTHZw6a8BI90Ofq1Eke-8" target="oiTHZw6a8BI90Ofq1Eke-72" edge="1">
          <mxGeometry width="100" height="100" relative="1" as="geometry">
            <mxPoint x="650" y="580" as="sourcePoint" />
            <mxPoint x="750" y="480" as="targetPoint" />
            <Array as="points">
              <mxPoint x="540" y="340" />
            </Array>
          </mxGeometry>
        </mxCell>
        <mxCell id="oiTHZw6a8BI90Ofq1Eke-156" value="&lt;span style=&quot;font-size: 17px;&quot;&gt;Term&lt;/span&gt;" style="shape=table;startSize=30;container=1;collapsible=1;childLayout=tableLayout;fixedRows=1;rowLines=0;fontStyle=1;align=center;resizeLast=1;html=1;whiteSpace=wrap;fontSize=17;" parent="1" vertex="1">
          <mxGeometry x="900" y="-250" width="480" height="690" as="geometry" />
        </mxCell>
        <mxCell id="oiTHZw6a8BI90Ofq1Eke-157" value="" style="shape=tableRow;horizontal=0;startSize=0;swimlaneHead=0;swimlaneBody=0;fillColor=none;collapsible=0;dropTarget=0;points=[[0,0.5],[1,0.5]];portConstraint=eastwest;top=0;left=0;right=0;bottom=1;fontSize=17;" parent="oiTHZw6a8BI90Ofq1Eke-156" vertex="1">
          <mxGeometry y="30" width="480" height="50" as="geometry" />
        </mxCell>
        <mxCell id="oiTHZw6a8BI90Ofq1Eke-158" value="&lt;font style=&quot;font-size: 17px;&quot;&gt;PK&lt;/font&gt;" style="shape=partialRectangle;connectable=0;fillColor=none;top=0;left=0;bottom=0;right=0;fontStyle=1;overflow=hidden;whiteSpace=wrap;html=1;fontSize=17;" parent="oiTHZw6a8BI90Ofq1Eke-157" vertex="1">
          <mxGeometry width="210" height="50" as="geometry">
            <mxRectangle width="210" height="50" as="alternateBounds" />
          </mxGeometry>
        </mxCell>
        <mxCell id="oiTHZw6a8BI90Ofq1Eke-159" value="&lt;font style=&quot;font-size: 17px;&quot;&gt;Term_id&lt;/font&gt;" style="shape=partialRectangle;connectable=0;fillColor=none;top=0;left=0;bottom=0;right=0;align=left;spacingLeft=6;fontStyle=5;overflow=hidden;whiteSpace=wrap;html=1;fontSize=17;" parent="oiTHZw6a8BI90Ofq1Eke-157" vertex="1">
          <mxGeometry x="210" width="270" height="50" as="geometry">
            <mxRectangle width="270" height="50" as="alternateBounds" />
          </mxGeometry>
        </mxCell>
        <mxCell id="oiTHZw6a8BI90Ofq1Eke-160" value="" style="shape=tableRow;horizontal=0;startSize=0;swimlaneHead=0;swimlaneBody=0;fillColor=none;collapsible=0;dropTarget=0;points=[[0,0.5],[1,0.5]];portConstraint=eastwest;top=0;left=0;right=0;bottom=0;html=1;fontSize=17;" parent="oiTHZw6a8BI90Ofq1Eke-156" vertex="1">
          <mxGeometry y="80" width="480" height="40" as="geometry" />
        </mxCell>
        <mxCell id="oiTHZw6a8BI90Ofq1Eke-161" value="FK(MtoM Student)" style="shape=partialRectangle;connectable=0;fillColor=none;top=0;left=0;bottom=0;right=0;fontStyle=1;overflow=hidden;html=1;whiteSpace=wrap;fontSize=17;" parent="oiTHZw6a8BI90Ofq1Eke-160" vertex="1">
          <mxGeometry width="210" height="40" as="geometry">
            <mxRectangle width="210" height="40" as="alternateBounds" />
          </mxGeometry>
        </mxCell>
        <mxCell id="oiTHZw6a8BI90Ofq1Eke-162" value="Students" style="shape=partialRectangle;connectable=0;fillColor=none;top=0;left=0;bottom=0;right=0;align=left;spacingLeft=6;fontStyle=5;overflow=hidden;html=1;whiteSpace=wrap;fontSize=17;" parent="oiTHZw6a8BI90Ofq1Eke-160" vertex="1">
          <mxGeometry x="210" width="270" height="40" as="geometry">
            <mxRectangle width="270" height="40" as="alternateBounds" />
          </mxGeometry>
        </mxCell>
        <mxCell id="oiTHZw6a8BI90Ofq1Eke-163" value="" style="shape=tableRow;horizontal=0;startSize=0;swimlaneHead=0;swimlaneBody=0;fillColor=none;collapsible=0;dropTarget=0;points=[[0,0.5],[1,0.5]];portConstraint=eastwest;top=0;left=0;right=0;bottom=1;html=1;fontSize=17;" parent="oiTHZw6a8BI90Ofq1Eke-156" vertex="1">
          <mxGeometry y="120" width="480" height="60" as="geometry" />
        </mxCell>
        <mxCell id="oiTHZw6a8BI90Ofq1Eke-164" value="FK(MtoM Professor)" style="shape=partialRectangle;connectable=0;fillColor=none;top=0;left=0;bottom=0;right=0;fontStyle=1;overflow=hidden;html=1;whiteSpace=wrap;fontSize=17;" parent="oiTHZw6a8BI90Ofq1Eke-163" vertex="1">
          <mxGeometry width="210" height="60" as="geometry">
            <mxRectangle width="210" height="60" as="alternateBounds" />
          </mxGeometry>
        </mxCell>
        <mxCell id="oiTHZw6a8BI90Ofq1Eke-165" value="Professors" style="shape=partialRectangle;connectable=0;fillColor=none;top=0;left=0;bottom=0;right=0;align=left;spacingLeft=6;fontStyle=5;overflow=hidden;html=1;whiteSpace=wrap;fontSize=17;" parent="oiTHZw6a8BI90Ofq1Eke-163" vertex="1">
          <mxGeometry x="210" width="270" height="60" as="geometry">
            <mxRectangle width="270" height="60" as="alternateBounds" />
          </mxGeometry>
        </mxCell>
        <mxCell id="oiTHZw6a8BI90Ofq1Eke-169" value="" style="shape=tableRow;horizontal=0;startSize=0;swimlaneHead=0;swimlaneBody=0;fillColor=none;collapsible=0;dropTarget=0;points=[[0,0.5],[1,0.5]];portConstraint=eastwest;top=0;left=0;right=0;bottom=0;html=1;fontSize=17;" parent="oiTHZw6a8BI90Ofq1Eke-156" vertex="1">
          <mxGeometry y="180" width="480" height="50" as="geometry" />
        </mxCell>
        <mxCell id="oiTHZw6a8BI90Ofq1Eke-170" value="" style="shape=partialRectangle;connectable=0;fillColor=none;top=0;left=0;bottom=0;right=0;editable=1;overflow=hidden;html=1;whiteSpace=wrap;fontSize=17;" parent="oiTHZw6a8BI90Ofq1Eke-169" vertex="1">
          <mxGeometry width="210" height="50" as="geometry">
            <mxRectangle width="210" height="50" as="alternateBounds" />
          </mxGeometry>
        </mxCell>
        <mxCell id="oiTHZw6a8BI90Ofq1Eke-171" value="TermName" style="shape=partialRectangle;connectable=0;fillColor=none;top=0;left=0;bottom=0;right=0;align=left;spacingLeft=6;overflow=hidden;html=1;whiteSpace=wrap;fontSize=17;" parent="oiTHZw6a8BI90Ofq1Eke-169" vertex="1">
          <mxGeometry x="210" width="270" height="50" as="geometry">
            <mxRectangle width="270" height="50" as="alternateBounds" />
          </mxGeometry>
        </mxCell>
        <mxCell id="oiTHZw6a8BI90Ofq1Eke-172" value="" style="shape=tableRow;horizontal=0;startSize=0;swimlaneHead=0;swimlaneBody=0;fillColor=none;collapsible=0;dropTarget=0;points=[[0,0.5],[1,0.5]];portConstraint=eastwest;top=0;left=0;right=0;bottom=0;html=1;fontSize=17;" parent="oiTHZw6a8BI90Ofq1Eke-156" vertex="1">
          <mxGeometry y="230" width="480" height="50" as="geometry" />
        </mxCell>
        <mxCell id="oiTHZw6a8BI90Ofq1Eke-173" value="" style="shape=partialRectangle;connectable=0;fillColor=none;top=0;left=0;bottom=0;right=0;editable=1;overflow=hidden;html=1;whiteSpace=wrap;fontSize=17;" parent="oiTHZw6a8BI90Ofq1Eke-172" vertex="1">
          <mxGeometry width="210" height="50" as="geometry">
            <mxRectangle width="210" height="50" as="alternateBounds" />
          </mxGeometry>
        </mxCell>
        <mxCell id="oiTHZw6a8BI90Ofq1Eke-174" value="take_course_start_time" style="shape=partialRectangle;connectable=0;fillColor=none;top=0;left=0;bottom=0;right=0;align=left;spacingLeft=6;overflow=hidden;html=1;whiteSpace=wrap;fontSize=17;" parent="oiTHZw6a8BI90Ofq1Eke-172" vertex="1">
          <mxGeometry x="210" width="270" height="50" as="geometry">
            <mxRectangle width="270" height="50" as="alternateBounds" />
          </mxGeometry>
        </mxCell>
        <mxCell id="oiTHZw6a8BI90Ofq1Eke-175" value="" style="shape=tableRow;horizontal=0;startSize=0;swimlaneHead=0;swimlaneBody=0;fillColor=none;collapsible=0;dropTarget=0;points=[[0,0.5],[1,0.5]];portConstraint=eastwest;top=0;left=0;right=0;bottom=0;html=1;fontSize=17;" parent="oiTHZw6a8BI90Ofq1Eke-156" vertex="1">
          <mxGeometry y="280" width="480" height="60" as="geometry" />
        </mxCell>
        <mxCell id="oiTHZw6a8BI90Ofq1Eke-176" value="" style="shape=partialRectangle;connectable=0;fillColor=none;top=0;left=0;bottom=0;right=0;editable=1;overflow=hidden;html=1;whiteSpace=wrap;fontSize=17;" parent="oiTHZw6a8BI90Ofq1Eke-175" vertex="1">
          <mxGeometry width="210" height="60" as="geometry">
            <mxRectangle width="210" height="60" as="alternateBounds" />
          </mxGeometry>
        </mxCell>
        <mxCell id="oiTHZw6a8BI90Ofq1Eke-177" value="take_course_end_time" style="shape=partialRectangle;connectable=0;fillColor=none;top=0;left=0;bottom=0;right=0;align=left;spacingLeft=6;overflow=hidden;html=1;whiteSpace=wrap;fontSize=17;" parent="oiTHZw6a8BI90Ofq1Eke-175" vertex="1">
          <mxGeometry x="210" width="270" height="60" as="geometry">
            <mxRectangle width="270" height="60" as="alternateBounds" />
          </mxGeometry>
        </mxCell>
        <mxCell id="oiTHZw6a8BI90Ofq1Eke-178" value="" style="shape=tableRow;horizontal=0;startSize=0;swimlaneHead=0;swimlaneBody=0;fillColor=none;collapsible=0;dropTarget=0;points=[[0,0.5],[1,0.5]];portConstraint=eastwest;top=0;left=0;right=0;bottom=0;html=1;fontSize=17;" parent="oiTHZw6a8BI90Ofq1Eke-156" vertex="1">
          <mxGeometry y="340" width="480" height="50" as="geometry" />
        </mxCell>
        <mxCell id="oiTHZw6a8BI90Ofq1Eke-179" value="" style="shape=partialRectangle;connectable=0;fillColor=none;top=0;left=0;bottom=0;right=0;editable=1;overflow=hidden;html=1;whiteSpace=wrap;fontSize=17;" parent="oiTHZw6a8BI90Ofq1Eke-178" vertex="1">
          <mxGeometry width="210" height="50" as="geometry">
            <mxRectangle width="210" height="50" as="alternateBounds" />
          </mxGeometry>
        </mxCell>
        <mxCell id="oiTHZw6a8BI90Ofq1Eke-180" value="class_start_time" style="shape=partialRectangle;connectable=0;fillColor=none;top=0;left=0;bottom=0;right=0;align=left;spacingLeft=6;overflow=hidden;html=1;whiteSpace=wrap;fontSize=17;" parent="oiTHZw6a8BI90Ofq1Eke-178" vertex="1">
          <mxGeometry x="210" width="270" height="50" as="geometry">
            <mxRectangle width="270" height="50" as="alternateBounds" />
          </mxGeometry>
        </mxCell>
        <mxCell id="oiTHZw6a8BI90Ofq1Eke-181" value="" style="shape=tableRow;horizontal=0;startSize=0;swimlaneHead=0;swimlaneBody=0;fillColor=none;collapsible=0;dropTarget=0;points=[[0,0.5],[1,0.5]];portConstraint=eastwest;top=0;left=0;right=0;bottom=0;html=1;fontSize=17;" parent="oiTHZw6a8BI90Ofq1Eke-156" vertex="1">
          <mxGeometry y="390" width="480" height="50" as="geometry" />
        </mxCell>
        <mxCell id="oiTHZw6a8BI90Ofq1Eke-182" value="" style="shape=partialRectangle;connectable=0;fillColor=none;top=0;left=0;bottom=0;right=0;editable=1;overflow=hidden;html=1;whiteSpace=wrap;fontSize=17;" parent="oiTHZw6a8BI90Ofq1Eke-181" vertex="1">
          <mxGeometry width="210" height="50" as="geometry">
            <mxRectangle width="210" height="50" as="alternateBounds" />
          </mxGeometry>
        </mxCell>
        <mxCell id="oiTHZw6a8BI90Ofq1Eke-183" value="class_end_time" style="shape=partialRectangle;connectable=0;fillColor=none;top=0;left=0;bottom=0;right=0;align=left;spacingLeft=6;overflow=hidden;html=1;whiteSpace=wrap;fontSize=17;" parent="oiTHZw6a8BI90Ofq1Eke-181" vertex="1">
          <mxGeometry x="210" width="270" height="50" as="geometry">
            <mxRectangle width="270" height="50" as="alternateBounds" />
          </mxGeometry>
        </mxCell>
        <mxCell id="oiTHZw6a8BI90Ofq1Eke-184" value="" style="shape=tableRow;horizontal=0;startSize=0;swimlaneHead=0;swimlaneBody=0;fillColor=none;collapsible=0;dropTarget=0;points=[[0,0.5],[1,0.5]];portConstraint=eastwest;top=0;left=0;right=0;bottom=0;html=1;fontSize=17;" parent="oiTHZw6a8BI90Ofq1Eke-156" vertex="1">
          <mxGeometry y="440" width="480" height="50" as="geometry" />
        </mxCell>
        <mxCell id="oiTHZw6a8BI90Ofq1Eke-185" value="" style="shape=partialRectangle;connectable=0;fillColor=none;top=0;left=0;bottom=0;right=0;editable=1;overflow=hidden;html=1;whiteSpace=wrap;fontSize=17;" parent="oiTHZw6a8BI90Ofq1Eke-184" vertex="1">
          <mxGeometry width="210" height="50" as="geometry">
            <mxRectangle width="210" height="50" as="alternateBounds" />
          </mxGeometry>
        </mxCell>
        <mxCell id="oiTHZw6a8BI90Ofq1Eke-186" value="fix_course_start_time" style="shape=partialRectangle;connectable=0;fillColor=none;top=0;left=0;bottom=0;right=0;align=left;spacingLeft=6;overflow=hidden;html=1;whiteSpace=wrap;fontSize=17;" parent="oiTHZw6a8BI90Ofq1Eke-184" vertex="1">
          <mxGeometry x="210" width="270" height="50" as="geometry">
            <mxRectangle width="270" height="50" as="alternateBounds" />
          </mxGeometry>
        </mxCell>
        <mxCell id="oiTHZw6a8BI90Ofq1Eke-187" value="" style="shape=tableRow;horizontal=0;startSize=0;swimlaneHead=0;swimlaneBody=0;fillColor=none;collapsible=0;dropTarget=0;points=[[0,0.5],[1,0.5]];portConstraint=eastwest;top=0;left=0;right=0;bottom=0;html=1;fontSize=17;" parent="oiTHZw6a8BI90Ofq1Eke-156" vertex="1">
          <mxGeometry y="490" width="480" height="50" as="geometry" />
        </mxCell>
        <mxCell id="oiTHZw6a8BI90Ofq1Eke-188" value="" style="shape=partialRectangle;connectable=0;fillColor=none;top=0;left=0;bottom=0;right=0;editable=1;overflow=hidden;html=1;whiteSpace=wrap;fontSize=17;" parent="oiTHZw6a8BI90Ofq1Eke-187" vertex="1">
          <mxGeometry width="210" height="50" as="geometry">
            <mxRectangle width="210" height="50" as="alternateBounds" />
          </mxGeometry>
        </mxCell>
        <mxCell id="oiTHZw6a8BI90Ofq1Eke-189" value="fix_course_end_time" style="shape=partialRectangle;connectable=0;fillColor=none;top=0;left=0;bottom=0;right=0;align=left;spacingLeft=6;overflow=hidden;html=1;whiteSpace=wrap;fontSize=17;" parent="oiTHZw6a8BI90Ofq1Eke-187" vertex="1">
          <mxGeometry x="210" width="270" height="50" as="geometry">
            <mxRectangle width="270" height="50" as="alternateBounds" />
          </mxGeometry>
        </mxCell>
        <mxCell id="oiTHZw6a8BI90Ofq1Eke-190" value="" style="shape=tableRow;horizontal=0;startSize=0;swimlaneHead=0;swimlaneBody=0;fillColor=none;collapsible=0;dropTarget=0;points=[[0,0.5],[1,0.5]];portConstraint=eastwest;top=0;left=0;right=0;bottom=0;html=1;fontSize=17;" parent="oiTHZw6a8BI90Ofq1Eke-156" vertex="1">
          <mxGeometry y="540" width="480" height="50" as="geometry" />
        </mxCell>
        <mxCell id="oiTHZw6a8BI90Ofq1Eke-191" value="" style="shape=partialRectangle;connectable=0;fillColor=none;top=0;left=0;bottom=0;right=0;editable=1;overflow=hidden;html=1;whiteSpace=wrap;fontSize=17;" parent="oiTHZw6a8BI90Ofq1Eke-190" vertex="1">
          <mxGeometry width="210" height="50" as="geometry">
            <mxRectangle width="210" height="50" as="alternateBounds" />
          </mxGeometry>
        </mxCell>
        <mxCell id="oiTHZw6a8BI90Ofq1Eke-192" value="emergency_removal_end_time" style="shape=partialRectangle;connectable=0;fillColor=none;top=0;left=0;bottom=0;right=0;align=left;spacingLeft=6;overflow=hidden;html=1;whiteSpace=wrap;fontSize=17;" parent="oiTHZw6a8BI90Ofq1Eke-190" vertex="1">
          <mxGeometry x="210" width="270" height="50" as="geometry">
            <mxRectangle width="270" height="50" as="alternateBounds" />
          </mxGeometry>
        </mxCell>
        <mxCell id="oiTHZw6a8BI90Ofq1Eke-193" value="" style="shape=tableRow;horizontal=0;startSize=0;swimlaneHead=0;swimlaneBody=0;fillColor=none;collapsible=0;dropTarget=0;points=[[0,0.5],[1,0.5]];portConstraint=eastwest;top=0;left=0;right=0;bottom=0;html=1;fontSize=17;" parent="oiTHZw6a8BI90Ofq1Eke-156" vertex="1">
          <mxGeometry y="590" width="480" height="40" as="geometry" />
        </mxCell>
        <mxCell id="oiTHZw6a8BI90Ofq1Eke-194" value="" style="shape=partialRectangle;connectable=0;fillColor=none;top=0;left=0;bottom=0;right=0;editable=1;overflow=hidden;html=1;whiteSpace=wrap;fontSize=17;" parent="oiTHZw6a8BI90Ofq1Eke-193" vertex="1">
          <mxGeometry width="210" height="40" as="geometry">
            <mxRectangle width="210" height="40" as="alternateBounds" />
          </mxGeometry>
        </mxCell>
        <mxCell id="oiTHZw6a8BI90Ofq1Eke-195" value="exam_start_time" style="shape=partialRectangle;connectable=0;fillColor=none;top=0;left=0;bottom=0;right=0;align=left;spacingLeft=6;overflow=hidden;html=1;whiteSpace=wrap;fontSize=17;" parent="oiTHZw6a8BI90Ofq1Eke-193" vertex="1">
          <mxGeometry x="210" width="270" height="40" as="geometry">
            <mxRectangle width="270" height="40" as="alternateBounds" />
          </mxGeometry>
        </mxCell>
        <mxCell id="oiTHZw6a8BI90Ofq1Eke-196" value="" style="shape=tableRow;horizontal=0;startSize=0;swimlaneHead=0;swimlaneBody=0;fillColor=none;collapsible=0;dropTarget=0;points=[[0,0.5],[1,0.5]];portConstraint=eastwest;top=0;left=0;right=0;bottom=0;html=1;fontSize=17;" parent="oiTHZw6a8BI90Ofq1Eke-156" vertex="1">
          <mxGeometry y="630" width="480" height="60" as="geometry" />
        </mxCell>
        <mxCell id="oiTHZw6a8BI90Ofq1Eke-197" value="" style="shape=partialRectangle;connectable=0;fillColor=none;top=0;left=0;bottom=0;right=0;editable=1;overflow=hidden;html=1;whiteSpace=wrap;fontSize=17;" parent="oiTHZw6a8BI90Ofq1Eke-196" vertex="1">
          <mxGeometry width="210" height="60" as="geometry">
            <mxRectangle width="210" height="60" as="alternateBounds" />
          </mxGeometry>
        </mxCell>
        <mxCell id="oiTHZw6a8BI90Ofq1Eke-198" value="term_end_time" style="shape=partialRectangle;connectable=0;fillColor=none;top=0;left=0;bottom=0;right=0;align=left;spacingLeft=6;overflow=hidden;html=1;whiteSpace=wrap;fontSize=17;" parent="oiTHZw6a8BI90Ofq1Eke-196" vertex="1">
          <mxGeometry x="210" width="270" height="60" as="geometry">
            <mxRectangle width="270" height="60" as="alternateBounds" />
          </mxGeometry>
        </mxCell>
        <mxCell id="oiTHZw6a8BI90Ofq1Eke-200" value="" style="edgeStyle=entityRelationEdgeStyle;fontSize=17;html=1;endArrow=ERmany;startArrow=ERmany;rounded=0;entryX=0;entryY=0.5;entryDx=0;entryDy=0;exitX=1;exitY=0.5;exitDx=0;exitDy=0;" parent="1" source="oiTHZw6a8BI90Ofq1Eke-2" target="oiTHZw6a8BI90Ofq1Eke-163" edge="1">
          <mxGeometry width="100" height="100" relative="1" as="geometry">
            <mxPoint x="770" y="270" as="sourcePoint" />
            <mxPoint x="870" y="170" as="targetPoint" />
          </mxGeometry>
        </mxCell>
        <mxCell id="oiTHZw6a8BI90Ofq1Eke-203" style="edgeStyle=orthogonalEdgeStyle;rounded=0;orthogonalLoop=1;jettySize=auto;html=1;exitX=1;exitY=0.5;exitDx=0;exitDy=0;entryX=1;entryY=0.5;entryDx=0;entryDy=0;endArrow=ERmany;endFill=0;fontSize=17;" parent="1" source="oiTHZw6a8BI90Ofq1Eke-142" target="oiTHZw6a8BI90Ofq1Eke-72" edge="1">
          <mxGeometry relative="1" as="geometry" />
        </mxCell>
        <mxCell id="oiTHZw6a8BI90Ofq1Eke-204" style="edgeStyle=orthogonalEdgeStyle;rounded=0;orthogonalLoop=1;jettySize=auto;html=1;exitX=1;exitY=0.5;exitDx=0;exitDy=0;entryX=1;entryY=0.5;entryDx=0;entryDy=0;endArrow=ERmany;endFill=0;fontSize=17;" parent="1" source="oiTHZw6a8BI90Ofq1Eke-157" target="oiTHZw6a8BI90Ofq1Eke-145" edge="1">
          <mxGeometry relative="1" as="geometry" />
        </mxCell>
        <mxCell id="oiTHZw6a8BI90Ofq1Eke-206" value="study enrollment request" style="shape=table;startSize=60;container=1;collapsible=1;childLayout=tableLayout;fixedRows=1;rowLines=0;fontStyle=1;align=center;resizeLast=1;html=1;whiteSpace=wrap;fontSize=17;" parent="1" vertex="1">
          <mxGeometry x="-505" y="-430" width="270" height="400" as="geometry">
            <mxRectangle x="370" y="-390" width="150" height="30" as="alternateBounds" />
          </mxGeometry>
        </mxCell>
        <mxCell id="oiTHZw6a8BI90Ofq1Eke-207" value="" style="shape=tableRow;horizontal=0;startSize=0;swimlaneHead=0;swimlaneBody=0;fillColor=none;collapsible=0;dropTarget=0;points=[[0,0.5],[1,0.5]];portConstraint=eastwest;top=0;left=0;right=0;bottom=0;html=1;fontSize=17;" parent="oiTHZw6a8BI90Ofq1Eke-206" vertex="1">
          <mxGeometry y="60" width="270" height="60" as="geometry" />
        </mxCell>
        <mxCell id="oiTHZw6a8BI90Ofq1Eke-208" value="PK" style="shape=partialRectangle;connectable=0;fillColor=none;top=0;left=0;bottom=0;right=0;fontStyle=1;overflow=hidden;html=1;whiteSpace=wrap;fontSize=17;" parent="oiTHZw6a8BI90Ofq1Eke-207" vertex="1">
          <mxGeometry width="99.99999999999955" height="60" as="geometry">
            <mxRectangle width="99.99999999999955" height="60" as="alternateBounds" />
          </mxGeometry>
        </mxCell>
        <mxCell id="oiTHZw6a8BI90Ofq1Eke-209" value="SE_id" style="shape=partialRectangle;connectable=0;fillColor=none;top=0;left=0;bottom=0;right=0;align=left;spacingLeft=6;fontStyle=5;overflow=hidden;html=1;whiteSpace=wrap;fontSize=17;" parent="oiTHZw6a8BI90Ofq1Eke-207" vertex="1">
          <mxGeometry x="99.99999999999955" width="170.00000000000045" height="60" as="geometry">
            <mxRectangle width="170.00000000000045" height="60" as="alternateBounds" />
          </mxGeometry>
        </mxCell>
        <mxCell id="oiTHZw6a8BI90Ofq1Eke-213" value="" style="shape=tableRow;horizontal=0;startSize=0;swimlaneHead=0;swimlaneBody=0;fillColor=none;collapsible=0;dropTarget=0;points=[[0,0.5],[1,0.5]];portConstraint=eastwest;top=0;left=0;right=0;bottom=0;fontSize=17;" parent="oiTHZw6a8BI90Ofq1Eke-206" vertex="1">
          <mxGeometry y="120" width="270" height="70" as="geometry" />
        </mxCell>
        <mxCell id="oiTHZw6a8BI90Ofq1Eke-214" value="&lt;b&gt;FK&lt;/b&gt;" style="shape=partialRectangle;connectable=0;fillColor=none;top=0;left=0;bottom=0;right=0;fontStyle=0;overflow=hidden;whiteSpace=wrap;html=1;fontSize=17;" parent="oiTHZw6a8BI90Ofq1Eke-213" vertex="1">
          <mxGeometry width="99.99999999999955" height="70" as="geometry">
            <mxRectangle width="99.99999999999955" height="70" as="alternateBounds" />
          </mxGeometry>
        </mxCell>
        <mxCell id="oiTHZw6a8BI90Ofq1Eke-215" value="&lt;b&gt;&lt;u&gt;Student&lt;/u&gt;&lt;/b&gt;" style="shape=partialRectangle;connectable=1;fillColor=none;top=0;left=0;bottom=0;right=0;align=left;spacingLeft=6;fontStyle=0;overflow=hidden;whiteSpace=wrap;html=1;movable=1;resizable=1;rotatable=1;deletable=1;editable=1;locked=0;fontSize=17;" parent="oiTHZw6a8BI90Ofq1Eke-213" vertex="1">
          <mxGeometry x="99.99999999999955" width="170.00000000000045" height="70" as="geometry">
            <mxRectangle width="170.00000000000045" height="70" as="alternateBounds" />
          </mxGeometry>
        </mxCell>
        <mxCell id="oiTHZw6a8BI90Ofq1Eke-219" value="" style="shape=tableRow;horizontal=0;startSize=0;swimlaneHead=0;swimlaneBody=0;fillColor=none;collapsible=0;dropTarget=0;points=[[0,0.5],[1,0.5]];portConstraint=eastwest;top=0;left=0;right=0;bottom=0;html=1;fontSize=17;" parent="oiTHZw6a8BI90Ofq1Eke-206" vertex="1">
          <mxGeometry y="190" width="270" height="70" as="geometry" />
        </mxCell>
        <mxCell id="oiTHZw6a8BI90Ofq1Eke-220" value="&lt;b&gt;FK&lt;/b&gt;" style="shape=partialRectangle;connectable=0;fillColor=none;top=0;left=0;bottom=0;right=0;editable=1;overflow=hidden;html=1;whiteSpace=wrap;fontSize=17;" parent="oiTHZw6a8BI90Ofq1Eke-219" vertex="1">
          <mxGeometry width="99.99999999999955" height="70" as="geometry">
            <mxRectangle width="99.99999999999955" height="70" as="alternateBounds" />
          </mxGeometry>
        </mxCell>
        <mxCell id="oiTHZw6a8BI90Ofq1Eke-221" value="&lt;u&gt;&lt;b&gt;Term_id&lt;/b&gt;&lt;/u&gt;" style="shape=partialRectangle;connectable=0;fillColor=none;top=0;left=0;bottom=0;right=0;align=left;spacingLeft=6;overflow=hidden;html=1;whiteSpace=wrap;fontSize=17;" parent="oiTHZw6a8BI90Ofq1Eke-219" vertex="1">
          <mxGeometry x="99.99999999999955" width="170.00000000000045" height="70" as="geometry">
            <mxRectangle width="170.00000000000045" height="70" as="alternateBounds" />
          </mxGeometry>
        </mxCell>
        <mxCell id="oiTHZw6a8BI90Ofq1Eke-222" value="" style="shape=tableRow;horizontal=0;startSize=0;swimlaneHead=0;swimlaneBody=0;fillColor=none;collapsible=0;dropTarget=0;points=[[0,0.5],[1,0.5]];portConstraint=eastwest;top=0;left=0;right=0;bottom=0;fontSize=17;" parent="oiTHZw6a8BI90Ofq1Eke-206" vertex="1">
          <mxGeometry y="260" width="270" height="70" as="geometry" />
        </mxCell>
        <mxCell id="oiTHZw6a8BI90Ofq1Eke-223" value="FK" style="shape=partialRectangle;connectable=0;fillColor=none;top=0;left=0;bottom=0;right=0;editable=1;overflow=hidden;fontSize=17;fontStyle=1" parent="oiTHZw6a8BI90Ofq1Eke-222" vertex="1">
          <mxGeometry width="99.99999999999955" height="70" as="geometry">
            <mxRectangle width="99.99999999999955" height="70" as="alternateBounds" />
          </mxGeometry>
        </mxCell>
        <mxCell id="oiTHZw6a8BI90Ofq1Eke-224" value="Department_id" style="shape=partialRectangle;connectable=0;fillColor=none;top=0;left=0;bottom=0;right=0;align=left;spacingLeft=6;overflow=hidden;fontSize=17;fontStyle=5" parent="oiTHZw6a8BI90Ofq1Eke-222" vertex="1">
          <mxGeometry x="99.99999999999955" width="170.00000000000045" height="70" as="geometry">
            <mxRectangle width="170.00000000000045" height="70" as="alternateBounds" />
          </mxGeometry>
        </mxCell>
        <mxCell id="oiTHZw6a8BI90Ofq1Eke-216" value="" style="shape=tableRow;horizontal=0;startSize=0;swimlaneHead=0;swimlaneBody=0;fillColor=none;collapsible=0;dropTarget=0;points=[[0,0.5],[1,0.5]];portConstraint=eastwest;top=0;left=0;right=0;bottom=0;html=1;fontSize=17;" parent="oiTHZw6a8BI90Ofq1Eke-206" vertex="1">
          <mxGeometry y="330" width="270" height="70" as="geometry" />
        </mxCell>
        <mxCell id="oiTHZw6a8BI90Ofq1Eke-217" value="" style="shape=partialRectangle;connectable=0;fillColor=none;top=0;left=0;bottom=0;right=0;editable=1;overflow=hidden;html=1;whiteSpace=wrap;fontSize=17;" parent="oiTHZw6a8BI90Ofq1Eke-216" vertex="1">
          <mxGeometry width="99.99999999999955" height="70" as="geometry">
            <mxRectangle width="99.99999999999955" height="70" as="alternateBounds" />
          </mxGeometry>
        </mxCell>
        <mxCell id="oiTHZw6a8BI90Ofq1Eke-218" value="File" style="shape=partialRectangle;connectable=0;fillColor=none;top=0;left=0;bottom=0;right=0;align=left;spacingLeft=6;overflow=hidden;html=1;whiteSpace=wrap;fontSize=17;" parent="oiTHZw6a8BI90Ofq1Eke-216" vertex="1">
          <mxGeometry x="99.99999999999955" width="170.00000000000045" height="70" as="geometry">
            <mxRectangle width="170.00000000000045" height="70" as="alternateBounds" />
          </mxGeometry>
        </mxCell>
        <mxCell id="oiTHZw6a8BI90Ofq1Eke-226" value="delete term" style="shape=table;startSize=50;container=1;collapsible=1;childLayout=tableLayout;fixedRows=1;rowLines=0;fontStyle=1;align=center;resizeLast=1;html=1;whiteSpace=wrap;fontSize=17;" parent="1" vertex="1">
          <mxGeometry x="300" y="-340" width="382.5" height="350" as="geometry" />
        </mxCell>
        <mxCell id="oiTHZw6a8BI90Ofq1Eke-227" value="" style="shape=tableRow;horizontal=0;startSize=0;swimlaneHead=0;swimlaneBody=0;fillColor=none;collapsible=0;dropTarget=0;points=[[0,0.5],[1,0.5]];portConstraint=eastwest;top=0;left=0;right=0;bottom=0;html=1;fontSize=17;" parent="oiTHZw6a8BI90Ofq1Eke-226" vertex="1">
          <mxGeometry y="50" width="382.5" height="50" as="geometry" />
        </mxCell>
        <mxCell id="oiTHZw6a8BI90Ofq1Eke-228" value="PK,FK1" style="shape=partialRectangle;connectable=0;fillColor=none;top=0;left=0;bottom=0;right=0;fontStyle=1;overflow=hidden;html=1;whiteSpace=wrap;fontSize=17;" parent="oiTHZw6a8BI90Ofq1Eke-227" vertex="1">
          <mxGeometry width="102.5" height="50" as="geometry">
            <mxRectangle width="102.5" height="50" as="alternateBounds" />
          </mxGeometry>
        </mxCell>
        <mxCell id="oiTHZw6a8BI90Ofq1Eke-229" value="Term_id (Mto1)" style="shape=partialRectangle;connectable=0;fillColor=none;top=0;left=0;bottom=0;right=0;align=left;spacingLeft=6;fontStyle=5;overflow=hidden;html=1;whiteSpace=wrap;fontSize=17;" parent="oiTHZw6a8BI90Ofq1Eke-227" vertex="1">
          <mxGeometry x="102.5" width="280" height="50" as="geometry">
            <mxRectangle width="280" height="50" as="alternateBounds" />
          </mxGeometry>
        </mxCell>
        <mxCell id="oiTHZw6a8BI90Ofq1Eke-230" value="" style="shape=tableRow;horizontal=0;startSize=0;swimlaneHead=0;swimlaneBody=0;fillColor=none;collapsible=0;dropTarget=0;points=[[0,0.5],[1,0.5]];portConstraint=eastwest;top=0;left=0;right=0;bottom=1;html=1;fontSize=17;" parent="oiTHZw6a8BI90Ofq1Eke-226" vertex="1">
          <mxGeometry y="100" width="382.5" height="60" as="geometry" />
        </mxCell>
        <mxCell id="oiTHZw6a8BI90Ofq1Eke-231" value="PK,FK2" style="shape=partialRectangle;connectable=0;fillColor=none;top=0;left=0;bottom=0;right=0;fontStyle=1;overflow=hidden;html=1;whiteSpace=wrap;fontSize=17;" parent="oiTHZw6a8BI90Ofq1Eke-230" vertex="1">
          <mxGeometry width="102.5" height="60" as="geometry">
            <mxRectangle width="102.5" height="60" as="alternateBounds" />
          </mxGeometry>
        </mxCell>
        <mxCell id="oiTHZw6a8BI90Ofq1Eke-232" value="Student_id (Mto1)" style="shape=partialRectangle;connectable=0;fillColor=none;top=0;left=0;bottom=0;right=0;align=left;spacingLeft=6;fontStyle=5;overflow=hidden;html=1;whiteSpace=wrap;fontSize=17;" parent="oiTHZw6a8BI90Ofq1Eke-230" vertex="1">
          <mxGeometry x="102.5" width="280" height="60" as="geometry">
            <mxRectangle width="280" height="60" as="alternateBounds" />
          </mxGeometry>
        </mxCell>
        <mxCell id="oiTHZw6a8BI90Ofq1Eke-233" value="" style="shape=tableRow;horizontal=0;startSize=0;swimlaneHead=0;swimlaneBody=0;fillColor=none;collapsible=0;dropTarget=0;points=[[0,0.5],[1,0.5]];portConstraint=eastwest;top=0;left=0;right=0;bottom=0;html=1;fontSize=17;" parent="oiTHZw6a8BI90Ofq1Eke-226" vertex="1">
          <mxGeometry y="160" width="382.5" height="60" as="geometry" />
        </mxCell>
        <mxCell id="oiTHZw6a8BI90Ofq1Eke-234" value="" style="shape=partialRectangle;connectable=0;fillColor=none;top=0;left=0;bottom=0;right=0;editable=1;overflow=hidden;html=1;whiteSpace=wrap;fontSize=17;" parent="oiTHZw6a8BI90Ofq1Eke-233" vertex="1">
          <mxGeometry width="102.5" height="60" as="geometry">
            <mxRectangle width="102.5" height="60" as="alternateBounds" />
          </mxGeometry>
        </mxCell>
        <mxCell id="oiTHZw6a8BI90Ofq1Eke-235" value="Result" style="shape=partialRectangle;connectable=0;fillColor=none;top=0;left=0;bottom=0;right=0;align=left;spacingLeft=6;overflow=hidden;html=1;whiteSpace=wrap;fontSize=17;" parent="oiTHZw6a8BI90Ofq1Eke-233" vertex="1">
          <mxGeometry x="102.5" width="280" height="60" as="geometry">
            <mxRectangle width="280" height="60" as="alternateBounds" />
          </mxGeometry>
        </mxCell>
        <mxCell id="oiTHZw6a8BI90Ofq1Eke-236" value="" style="shape=tableRow;horizontal=0;startSize=0;swimlaneHead=0;swimlaneBody=0;fillColor=none;collapsible=0;dropTarget=0;points=[[0,0.5],[1,0.5]];portConstraint=eastwest;top=0;left=0;right=0;bottom=0;html=1;fontSize=17;" parent="oiTHZw6a8BI90Ofq1Eke-226" vertex="1">
          <mxGeometry y="220" width="382.5" height="65" as="geometry" />
        </mxCell>
        <mxCell id="oiTHZw6a8BI90Ofq1Eke-237" value="" style="shape=partialRectangle;connectable=0;fillColor=none;top=0;left=0;bottom=0;right=0;editable=1;overflow=hidden;html=1;whiteSpace=wrap;fontSize=17;" parent="oiTHZw6a8BI90Ofq1Eke-236" vertex="1">
          <mxGeometry width="102.5" height="65" as="geometry">
            <mxRectangle width="102.5" height="65" as="alternateBounds" />
          </mxGeometry>
        </mxCell>
        <mxCell id="oiTHZw6a8BI90Ofq1Eke-238" value="Student_comment&amp;nbsp;" style="shape=partialRectangle;connectable=0;fillColor=none;top=0;left=0;bottom=0;right=0;align=left;spacingLeft=6;overflow=hidden;html=1;whiteSpace=wrap;fontSize=17;" parent="oiTHZw6a8BI90Ofq1Eke-236" vertex="1">
          <mxGeometry x="102.5" width="280" height="65" as="geometry">
            <mxRectangle width="280" height="65" as="alternateBounds" />
          </mxGeometry>
        </mxCell>
        <mxCell id="oiTHZw6a8BI90Ofq1Eke-239" value="" style="shape=tableRow;horizontal=0;startSize=0;swimlaneHead=0;swimlaneBody=0;fillColor=none;collapsible=0;dropTarget=0;points=[[0,0.5],[1,0.5]];portConstraint=eastwest;top=0;left=0;right=0;bottom=0;fontSize=17;" parent="oiTHZw6a8BI90Ofq1Eke-226" vertex="1">
          <mxGeometry y="285" width="382.5" height="65" as="geometry" />
        </mxCell>
        <mxCell id="oiTHZw6a8BI90Ofq1Eke-240" value="" style="shape=partialRectangle;connectable=0;fillColor=none;top=0;left=0;bottom=0;right=0;editable=1;overflow=hidden;fontSize=17;" parent="oiTHZw6a8BI90Ofq1Eke-239" vertex="1">
          <mxGeometry width="102.5" height="65" as="geometry">
            <mxRectangle width="102.5" height="65" as="alternateBounds" />
          </mxGeometry>
        </mxCell>
        <mxCell id="oiTHZw6a8BI90Ofq1Eke-241" value="Educational Deputy comment" style="shape=partialRectangle;connectable=0;fillColor=none;top=0;left=0;bottom=0;right=0;align=left;spacingLeft=6;overflow=hidden;fontSize=17;" parent="oiTHZw6a8BI90Ofq1Eke-239" vertex="1">
          <mxGeometry x="102.5" width="280" height="65" as="geometry">
            <mxRectangle width="280" height="65" as="alternateBounds" />
          </mxGeometry>
        </mxCell>
        <mxCell id="oiTHZw6a8BI90Ofq1Eke-242" value="Select unit" style="shape=table;startSize=40;container=1;collapsible=1;childLayout=tableLayout;fixedRows=1;rowLines=0;fontStyle=1;align=center;resizeLast=1;html=1;whiteSpace=wrap;fontSize=17;" parent="1" vertex="1">
          <mxGeometry x="620" y="-1050" width="340" height="330" as="geometry">
            <mxRectangle x="370" y="-390" width="150" height="30" as="alternateBounds" />
          </mxGeometry>
        </mxCell>
        <mxCell id="oiTHZw6a8BI90Ofq1Eke-243" value="" style="shape=tableRow;horizontal=0;startSize=0;swimlaneHead=0;swimlaneBody=0;fillColor=none;collapsible=0;dropTarget=0;points=[[0,0.5],[1,0.5]];portConstraint=eastwest;top=0;left=0;right=0;bottom=0;html=1;fontSize=17;" parent="oiTHZw6a8BI90Ofq1Eke-242" vertex="1">
          <mxGeometry y="40" width="340" height="70" as="geometry" />
        </mxCell>
        <mxCell id="oiTHZw6a8BI90Ofq1Eke-244" value="PK" style="shape=partialRectangle;connectable=0;fillColor=none;top=0;left=0;bottom=0;right=0;fontStyle=1;overflow=hidden;html=1;whiteSpace=wrap;fontSize=17;" parent="oiTHZw6a8BI90Ofq1Eke-243" vertex="1">
          <mxGeometry width="100" height="70" as="geometry">
            <mxRectangle width="100" height="70" as="alternateBounds" />
          </mxGeometry>
        </mxCell>
        <mxCell id="oiTHZw6a8BI90Ofq1Eke-245" value="Selection_id" style="shape=partialRectangle;connectable=0;fillColor=none;top=0;left=0;bottom=0;right=0;align=left;spacingLeft=6;fontStyle=5;overflow=hidden;html=1;whiteSpace=wrap;fontSize=17;" parent="oiTHZw6a8BI90Ofq1Eke-243" vertex="1">
          <mxGeometry x="100" width="240" height="70" as="geometry">
            <mxRectangle width="240" height="70" as="alternateBounds" />
          </mxGeometry>
        </mxCell>
        <mxCell id="MB9ObGxGcaxl4uOhNXRl-6" value="" style="shape=tableRow;horizontal=0;startSize=0;swimlaneHead=0;swimlaneBody=0;fillColor=none;collapsible=0;dropTarget=0;points=[[0,0.5],[1,0.5]];portConstraint=eastwest;top=0;left=0;right=0;bottom=0;html=1;fontSize=17;" parent="oiTHZw6a8BI90Ofq1Eke-242" vertex="1">
          <mxGeometry y="110" width="340" height="80" as="geometry" />
        </mxCell>
        <mxCell id="MB9ObGxGcaxl4uOhNXRl-7" value="&lt;b&gt;FK&lt;/b&gt;" style="shape=partialRectangle;connectable=0;fillColor=none;top=0;left=0;bottom=0;right=0;editable=1;overflow=hidden;html=1;whiteSpace=wrap;fontSize=17;" parent="MB9ObGxGcaxl4uOhNXRl-6" vertex="1">
          <mxGeometry width="100" height="80" as="geometry">
            <mxRectangle width="100" height="80" as="alternateBounds" />
          </mxGeometry>
        </mxCell>
        <mxCell id="MB9ObGxGcaxl4uOhNXRl-8" value="&lt;u&gt;&lt;b&gt;Student(Mto1)&lt;/b&gt;&lt;/u&gt;" style="shape=partialRectangle;connectable=0;fillColor=none;top=0;left=0;bottom=0;right=0;align=left;spacingLeft=6;overflow=hidden;html=1;whiteSpace=wrap;fontSize=17;" parent="MB9ObGxGcaxl4uOhNXRl-6" vertex="1">
          <mxGeometry x="100" width="240" height="80" as="geometry">
            <mxRectangle width="240" height="80" as="alternateBounds" />
          </mxGeometry>
        </mxCell>
        <mxCell id="oiTHZw6a8BI90Ofq1Eke-258" value="" style="shape=tableRow;horizontal=0;startSize=0;swimlaneHead=0;swimlaneBody=0;fillColor=none;collapsible=0;dropTarget=0;points=[[0,0.5],[1,0.5]];portConstraint=eastwest;top=0;left=0;right=0;bottom=0;verticalAlign=middle;fontSize=17;" parent="oiTHZw6a8BI90Ofq1Eke-242" vertex="1">
          <mxGeometry y="190" width="340" height="80" as="geometry" />
        </mxCell>
        <mxCell id="oiTHZw6a8BI90Ofq1Eke-259" value="FK" style="shape=partialRectangle;connectable=0;fillColor=none;top=0;left=0;bottom=0;right=0;editable=1;overflow=hidden;fontSize=17;fontStyle=1" parent="oiTHZw6a8BI90Ofq1Eke-258" vertex="1">
          <mxGeometry width="100" height="80" as="geometry">
            <mxRectangle width="100" height="80" as="alternateBounds" />
          </mxGeometry>
        </mxCell>
        <mxCell id="oiTHZw6a8BI90Ofq1Eke-260" value="Termic_Course_id (Mto1)" style="shape=partialRectangle;connectable=0;fillColor=none;top=0;left=0;bottom=0;right=0;align=left;spacingLeft=6;overflow=hidden;fontSize=17;fontStyle=5" parent="oiTHZw6a8BI90Ofq1Eke-258" vertex="1">
          <mxGeometry x="100" width="240" height="80" as="geometry">
            <mxRectangle width="240" height="80" as="alternateBounds" />
          </mxGeometry>
        </mxCell>
        <mxCell id="MB9ObGxGcaxl4uOhNXRl-9" value="" style="shape=tableRow;horizontal=0;startSize=0;swimlaneHead=0;swimlaneBody=0;fillColor=none;collapsible=0;dropTarget=0;points=[[0,0.5],[1,0.5]];portConstraint=eastwest;top=0;left=0;right=0;bottom=0;html=1;fontSize=17;" parent="oiTHZw6a8BI90Ofq1Eke-242" vertex="1">
          <mxGeometry y="270" width="340" height="60" as="geometry" />
        </mxCell>
        <mxCell id="MB9ObGxGcaxl4uOhNXRl-10" value="&lt;b&gt;FK&lt;/b&gt;" style="shape=partialRectangle;connectable=0;fillColor=none;top=0;left=0;bottom=0;right=0;editable=1;overflow=hidden;html=1;whiteSpace=wrap;fontSize=17;" parent="MB9ObGxGcaxl4uOhNXRl-9" vertex="1">
          <mxGeometry width="100" height="60" as="geometry">
            <mxRectangle width="100" height="60" as="alternateBounds" />
          </mxGeometry>
        </mxCell>
        <mxCell id="MB9ObGxGcaxl4uOhNXRl-11" value="&lt;b&gt;&lt;u&gt;Status_id (1to1)&lt;/u&gt;&lt;/b&gt;" style="shape=partialRectangle;connectable=0;fillColor=none;top=0;left=0;bottom=0;right=0;align=left;spacingLeft=6;overflow=hidden;html=1;whiteSpace=wrap;fontSize=17;" parent="MB9ObGxGcaxl4uOhNXRl-9" vertex="1">
          <mxGeometry x="100" width="240" height="60" as="geometry">
            <mxRectangle width="240" height="60" as="alternateBounds" />
          </mxGeometry>
        </mxCell>
        <mxCell id="oiTHZw6a8BI90Ofq1Eke-261" value="" style="shape=tableRow;horizontal=0;startSize=0;swimlaneHead=0;swimlaneBody=0;fillColor=none;collapsible=0;dropTarget=0;points=[[0,0.5],[1,0.5]];portConstraint=eastwest;top=0;left=0;right=0;bottom=0;html=1;fontSize=17;" parent="1" vertex="1">
          <mxGeometry x="530" y="-580" width="210" height="30" as="geometry" />
        </mxCell>
        <mxCell id="oiTHZw6a8BI90Ofq1Eke-262" value="" style="shape=partialRectangle;connectable=0;fillColor=none;top=0;left=0;bottom=0;right=0;editable=1;overflow=hidden;html=1;whiteSpace=wrap;fontSize=17;" parent="oiTHZw6a8BI90Ofq1Eke-261" vertex="1">
          <mxGeometry width="70" height="30" as="geometry">
            <mxRectangle width="70" height="30" as="alternateBounds" />
          </mxGeometry>
        </mxCell>
        <mxCell id="oiTHZw6a8BI90Ofq1Eke-263" value="&lt;font style=&quot;font-size: 17px;&quot;&gt;Remove and add&lt;/font&gt;" style="shape=table;startSize=35;container=1;collapsible=1;childLayout=tableLayout;fixedRows=1;rowLines=0;fontStyle=1;align=center;resizeLast=1;html=1;fontSize=17;" parent="1" vertex="1">
          <mxGeometry x="20" y="-840" width="500" height="420" as="geometry" />
        </mxCell>
        <mxCell id="oiTHZw6a8BI90Ofq1Eke-264" value="" style="shape=tableRow;horizontal=0;startSize=0;swimlaneHead=0;swimlaneBody=0;fillColor=none;collapsible=0;dropTarget=0;points=[[0,0.5],[1,0.5]];portConstraint=eastwest;top=0;left=0;right=0;bottom=1;fontSize=17;" parent="oiTHZw6a8BI90Ofq1Eke-263" vertex="1">
          <mxGeometry y="35" width="500" height="65" as="geometry" />
        </mxCell>
        <mxCell id="oiTHZw6a8BI90Ofq1Eke-265" value="PK" style="shape=partialRectangle;connectable=0;fillColor=none;top=0;left=0;bottom=0;right=0;fontStyle=1;overflow=hidden;whiteSpace=wrap;html=1;fontSize=17;" parent="oiTHZw6a8BI90Ofq1Eke-264" vertex="1">
          <mxGeometry width="180" height="65" as="geometry">
            <mxRectangle width="180" height="65" as="alternateBounds" />
          </mxGeometry>
        </mxCell>
        <mxCell id="oiTHZw6a8BI90Ofq1Eke-266" value="ID" style="shape=partialRectangle;connectable=0;fillColor=none;top=0;left=0;bottom=0;right=0;align=left;spacingLeft=6;fontStyle=5;overflow=hidden;whiteSpace=wrap;html=1;fontSize=17;strokeColor=inherit;" parent="oiTHZw6a8BI90Ofq1Eke-264" vertex="1">
          <mxGeometry x="180" width="320" height="65" as="geometry">
            <mxRectangle width="320" height="65" as="alternateBounds" />
          </mxGeometry>
        </mxCell>
        <mxCell id="oiTHZw6a8BI90Ofq1Eke-276" value="" style="shape=tableRow;horizontal=0;startSize=0;swimlaneHead=0;swimlaneBody=0;fillColor=none;collapsible=0;dropTarget=0;points=[[0,0.5],[1,0.5]];portConstraint=eastwest;top=0;left=0;right=0;bottom=0;fontSize=17;" parent="oiTHZw6a8BI90Ofq1Eke-263" vertex="1">
          <mxGeometry y="100" width="500" height="80" as="geometry" />
        </mxCell>
        <mxCell id="oiTHZw6a8BI90Ofq1Eke-277" value="&lt;b&gt;FK&lt;/b&gt;" style="shape=partialRectangle;connectable=0;fillColor=none;top=0;left=0;bottom=0;right=0;editable=1;overflow=hidden;whiteSpace=wrap;html=1;fontSize=17;" parent="oiTHZw6a8BI90Ofq1Eke-276" vertex="1">
          <mxGeometry width="180" height="80" as="geometry">
            <mxRectangle width="180" height="80" as="alternateBounds" />
          </mxGeometry>
        </mxCell>
        <mxCell id="oiTHZw6a8BI90Ofq1Eke-278" value="&lt;u&gt;&lt;b&gt;Student (Mto1)&lt;/b&gt;&lt;/u&gt;" style="shape=partialRectangle;connectable=0;fillColor=none;top=0;left=0;bottom=0;right=0;align=left;spacingLeft=6;overflow=hidden;whiteSpace=wrap;html=1;fontSize=17;" parent="oiTHZw6a8BI90Ofq1Eke-276" vertex="1">
          <mxGeometry x="180" width="320" height="80" as="geometry">
            <mxRectangle width="320" height="80" as="alternateBounds" />
          </mxGeometry>
        </mxCell>
        <mxCell id="oiTHZw6a8BI90Ofq1Eke-267" value="" style="shape=tableRow;horizontal=0;startSize=0;swimlaneHead=0;swimlaneBody=0;fillColor=none;collapsible=0;dropTarget=0;points=[[0,0.5],[1,0.5]];portConstraint=eastwest;top=0;left=0;right=0;bottom=0;fontSize=17;" parent="oiTHZw6a8BI90Ofq1Eke-263" vertex="1">
          <mxGeometry y="180" width="500" height="90" as="geometry" />
        </mxCell>
        <mxCell id="oiTHZw6a8BI90Ofq1Eke-268" value="&lt;b&gt;FK&lt;/b&gt;" style="shape=partialRectangle;connectable=0;fillColor=none;top=0;left=0;bottom=0;right=0;editable=1;overflow=hidden;whiteSpace=wrap;html=1;fontSize=17;" parent="oiTHZw6a8BI90Ofq1Eke-267" vertex="1">
          <mxGeometry width="180" height="90" as="geometry">
            <mxRectangle width="180" height="90" as="alternateBounds" />
          </mxGeometry>
        </mxCell>
        <mxCell id="oiTHZw6a8BI90Ofq1Eke-269" value="&lt;u&gt;&lt;b&gt;Added_termic_course_id(Mto1)&lt;/b&gt;&lt;/u&gt;" style="shape=partialRectangle;connectable=0;fillColor=none;top=0;left=0;bottom=0;right=0;align=left;spacingLeft=6;overflow=hidden;whiteSpace=wrap;html=1;fontSize=17;strokeColor=inherit;" parent="oiTHZw6a8BI90Ofq1Eke-267" vertex="1">
          <mxGeometry x="180" width="320" height="90" as="geometry">
            <mxRectangle width="320" height="90" as="alternateBounds" />
          </mxGeometry>
        </mxCell>
        <mxCell id="MB9ObGxGcaxl4uOhNXRl-19" value="" style="shape=tableRow;horizontal=0;startSize=0;swimlaneHead=0;swimlaneBody=0;fillColor=none;collapsible=0;dropTarget=0;points=[[0,0.5],[1,0.5]];portConstraint=eastwest;top=0;left=0;right=0;bottom=0;fontSize=17;" parent="oiTHZw6a8BI90Ofq1Eke-263" vertex="1">
          <mxGeometry y="270" width="500" height="90" as="geometry" />
        </mxCell>
        <mxCell id="MB9ObGxGcaxl4uOhNXRl-20" value="&lt;b&gt;FK&lt;/b&gt;" style="shape=partialRectangle;connectable=0;fillColor=none;top=0;left=0;bottom=0;right=0;editable=1;overflow=hidden;whiteSpace=wrap;html=1;fontSize=17;" parent="MB9ObGxGcaxl4uOhNXRl-19" vertex="1">
          <mxGeometry width="180" height="90" as="geometry">
            <mxRectangle width="180" height="90" as="alternateBounds" />
          </mxGeometry>
        </mxCell>
        <mxCell id="MB9ObGxGcaxl4uOhNXRl-21" value="&lt;u&gt;&lt;b&gt;Removed_termic_course_id(Mto1)&lt;/b&gt;&lt;/u&gt;" style="shape=partialRectangle;connectable=0;fillColor=none;top=0;left=0;bottom=0;right=0;align=left;spacingLeft=6;overflow=hidden;whiteSpace=wrap;html=1;fontSize=17;strokeColor=inherit;" parent="MB9ObGxGcaxl4uOhNXRl-19" vertex="1">
          <mxGeometry x="180" width="320" height="90" as="geometry">
            <mxRectangle width="320" height="90" as="alternateBounds" />
          </mxGeometry>
        </mxCell>
        <mxCell id="oiTHZw6a8BI90Ofq1Eke-273" value="" style="shape=tableRow;horizontal=0;startSize=0;swimlaneHead=0;swimlaneBody=0;fillColor=none;collapsible=0;dropTarget=0;points=[[0,0.5],[1,0.5]];portConstraint=eastwest;top=0;left=0;right=0;bottom=0;fontSize=17;verticalAlign=middle;" parent="oiTHZw6a8BI90Ofq1Eke-263" vertex="1">
          <mxGeometry y="360" width="500" height="60" as="geometry" />
        </mxCell>
        <mxCell id="oiTHZw6a8BI90Ofq1Eke-274" value="&lt;b&gt;FK&lt;/b&gt;" style="shape=partialRectangle;connectable=0;fillColor=none;top=0;left=0;bottom=0;right=0;editable=1;overflow=hidden;whiteSpace=wrap;html=1;fontSize=17;" parent="oiTHZw6a8BI90Ofq1Eke-273" vertex="1">
          <mxGeometry width="180" height="60" as="geometry">
            <mxRectangle width="180" height="60" as="alternateBounds" />
          </mxGeometry>
        </mxCell>
        <mxCell id="oiTHZw6a8BI90Ofq1Eke-275" value="&lt;b style=&quot;border-color: var(--border-color);&quot;&gt;&lt;u style=&quot;border-color: var(--border-color);&quot;&gt;Status_id (1to1)&lt;/u&gt;&lt;/b&gt;" style="shape=partialRectangle;connectable=0;fillColor=none;top=0;left=0;bottom=0;right=0;align=left;spacingLeft=6;overflow=hidden;whiteSpace=wrap;html=1;fontSize=17;" parent="oiTHZw6a8BI90Ofq1Eke-273" vertex="1">
          <mxGeometry x="180" width="320" height="60" as="geometry">
            <mxRectangle width="320" height="60" as="alternateBounds" />
          </mxGeometry>
        </mxCell>
        <mxCell id="oiTHZw6a8BI90Ofq1Eke-279" value="Grade Revision Request" style="shape=table;startSize=40;container=1;collapsible=1;childLayout=tableLayout;fixedRows=1;rowLines=0;fontStyle=1;align=center;resizeLast=1;html=1;whiteSpace=wrap;fontSize=17;" parent="1" vertex="1">
          <mxGeometry x="-580" y="1120" width="440" height="320" as="geometry" />
        </mxCell>
        <mxCell id="oiTHZw6a8BI90Ofq1Eke-280" value="" style="shape=tableRow;horizontal=0;startSize=0;swimlaneHead=0;swimlaneBody=0;fillColor=none;collapsible=0;dropTarget=0;points=[[0,0.5],[1,0.5]];portConstraint=eastwest;top=0;left=0;right=0;bottom=1;html=1;fontSize=17;" parent="oiTHZw6a8BI90Ofq1Eke-279" vertex="1">
          <mxGeometry y="40" width="440" height="50" as="geometry" />
        </mxCell>
        <mxCell id="oiTHZw6a8BI90Ofq1Eke-281" value="PK" style="shape=partialRectangle;connectable=0;fillColor=none;top=0;left=0;bottom=0;right=0;fontStyle=1;overflow=hidden;html=1;whiteSpace=wrap;fontSize=17;" parent="oiTHZw6a8BI90Ofq1Eke-280" vertex="1">
          <mxGeometry width="240" height="50" as="geometry">
            <mxRectangle width="240" height="50" as="alternateBounds" />
          </mxGeometry>
        </mxCell>
        <mxCell id="oiTHZw6a8BI90Ofq1Eke-282" value="Revision ID" style="shape=partialRectangle;connectable=0;fillColor=none;top=0;left=0;bottom=0;right=0;align=center;spacingLeft=6;fontStyle=5;overflow=hidden;html=1;whiteSpace=wrap;fontSize=17;" parent="oiTHZw6a8BI90Ofq1Eke-280" vertex="1">
          <mxGeometry x="240" width="200" height="50" as="geometry">
            <mxRectangle width="200" height="50" as="alternateBounds" />
          </mxGeometry>
        </mxCell>
        <mxCell id="oiTHZw6a8BI90Ofq1Eke-283" value="" style="shape=tableRow;horizontal=0;startSize=0;swimlaneHead=0;swimlaneBody=0;fillColor=none;collapsible=0;dropTarget=0;points=[[0,0.5],[1,0.5]];portConstraint=eastwest;top=0;left=0;right=0;bottom=0;html=1;fontSize=17;" parent="oiTHZw6a8BI90Ofq1Eke-279" vertex="1">
          <mxGeometry y="90" width="440" height="50" as="geometry" />
        </mxCell>
        <mxCell id="oiTHZw6a8BI90Ofq1Eke-284" value="FK (Mto1 with Student)" style="shape=partialRectangle;connectable=0;fillColor=none;top=0;left=0;bottom=0;right=0;fontStyle=1;overflow=hidden;html=1;whiteSpace=wrap;fontSize=17;" parent="oiTHZw6a8BI90Ofq1Eke-283" vertex="1">
          <mxGeometry width="240" height="50" as="geometry">
            <mxRectangle width="240" height="50" as="alternateBounds" />
          </mxGeometry>
        </mxCell>
        <mxCell id="oiTHZw6a8BI90Ofq1Eke-285" value="Student ID" style="shape=partialRectangle;connectable=0;fillColor=none;top=0;left=0;bottom=0;right=0;align=center;spacingLeft=6;fontStyle=5;overflow=hidden;html=1;whiteSpace=wrap;fontSize=17;" parent="oiTHZw6a8BI90Ofq1Eke-283" vertex="1">
          <mxGeometry x="240" width="200" height="50" as="geometry">
            <mxRectangle width="200" height="50" as="alternateBounds" />
          </mxGeometry>
        </mxCell>
        <mxCell id="oiTHZw6a8BI90Ofq1Eke-286" value="" style="shape=tableRow;horizontal=0;startSize=0;swimlaneHead=0;swimlaneBody=0;fillColor=none;collapsible=0;dropTarget=0;points=[[0,0.5],[1,0.5]];portConstraint=eastwest;top=0;left=0;right=0;bottom=0;fontSize=17;" parent="oiTHZw6a8BI90Ofq1Eke-279" vertex="1">
          <mxGeometry y="140" width="440" height="60" as="geometry" />
        </mxCell>
        <mxCell id="oiTHZw6a8BI90Ofq1Eke-287" value="&lt;b style=&quot;font-size: 17px;&quot;&gt;&lt;font style=&quot;font-size: 17px;&quot;&gt;FK (Mto1 with Course)&lt;/font&gt;&lt;/b&gt;" style="shape=partialRectangle;connectable=0;fillColor=none;top=0;left=0;bottom=0;right=0;fontStyle=0;overflow=hidden;whiteSpace=wrap;html=1;fontSize=17;" parent="oiTHZw6a8BI90Ofq1Eke-286" vertex="1">
          <mxGeometry width="240" height="60" as="geometry">
            <mxRectangle width="240" height="60" as="alternateBounds" />
          </mxGeometry>
        </mxCell>
        <mxCell id="oiTHZw6a8BI90Ofq1Eke-288" value="&lt;b style=&quot;font-size: 17px;&quot;&gt;&lt;u style=&quot;font-size: 17px;&quot;&gt;Course ID&lt;br style=&quot;font-size: 17px;&quot;&gt;&lt;/u&gt;&lt;/b&gt;" style="shape=partialRectangle;connectable=0;fillColor=none;top=0;left=0;bottom=0;right=0;align=center;spacingLeft=6;fontStyle=0;overflow=hidden;whiteSpace=wrap;html=1;fontSize=17;" parent="oiTHZw6a8BI90Ofq1Eke-286" vertex="1">
          <mxGeometry x="240" width="200" height="60" as="geometry">
            <mxRectangle width="200" height="60" as="alternateBounds" />
          </mxGeometry>
        </mxCell>
        <mxCell id="oiTHZw6a8BI90Ofq1Eke-292" value="" style="shape=tableRow;horizontal=0;startSize=0;swimlaneHead=0;swimlaneBody=0;fillColor=none;collapsible=0;dropTarget=0;points=[[0,0.5],[1,0.5]];portConstraint=eastwest;top=0;left=0;right=0;bottom=0;html=1;fontSize=17;" parent="oiTHZw6a8BI90Ofq1Eke-279" vertex="1">
          <mxGeometry y="200" width="440" height="50" as="geometry" />
        </mxCell>
        <mxCell id="oiTHZw6a8BI90Ofq1Eke-293" value="" style="shape=partialRectangle;connectable=0;fillColor=none;top=0;left=0;bottom=0;right=0;editable=1;overflow=hidden;html=1;whiteSpace=wrap;fontSize=17;" parent="oiTHZw6a8BI90Ofq1Eke-292" vertex="1">
          <mxGeometry width="240" height="50" as="geometry">
            <mxRectangle width="240" height="50" as="alternateBounds" />
          </mxGeometry>
        </mxCell>
        <mxCell id="oiTHZw6a8BI90Ofq1Eke-294" value="Revision Message" style="shape=partialRectangle;connectable=0;fillColor=none;top=0;left=0;bottom=0;right=0;align=center;spacingLeft=6;overflow=hidden;html=1;whiteSpace=wrap;fontSize=17;" parent="oiTHZw6a8BI90Ofq1Eke-292" vertex="1">
          <mxGeometry x="240" width="200" height="50" as="geometry">
            <mxRectangle width="200" height="50" as="alternateBounds" />
          </mxGeometry>
        </mxCell>
        <mxCell id="oiTHZw6a8BI90Ofq1Eke-295" value="" style="shape=tableRow;horizontal=0;startSize=0;swimlaneHead=0;swimlaneBody=0;fillColor=none;collapsible=0;dropTarget=0;points=[[0,0.5],[1,0.5]];portConstraint=eastwest;top=0;left=0;right=0;bottom=0;html=1;fontSize=17;" parent="oiTHZw6a8BI90Ofq1Eke-279" vertex="1">
          <mxGeometry y="250" width="440" height="70" as="geometry" />
        </mxCell>
        <mxCell id="oiTHZw6a8BI90Ofq1Eke-296" value="" style="shape=partialRectangle;connectable=0;fillColor=none;top=0;left=0;bottom=0;right=0;editable=1;overflow=hidden;html=1;whiteSpace=wrap;fontSize=17;" parent="oiTHZw6a8BI90Ofq1Eke-295" vertex="1">
          <mxGeometry width="240" height="70" as="geometry">
            <mxRectangle width="240" height="70" as="alternateBounds" />
          </mxGeometry>
        </mxCell>
        <mxCell id="oiTHZw6a8BI90Ofq1Eke-297" value="Revision Answer" style="shape=partialRectangle;connectable=0;fillColor=none;top=0;left=0;bottom=0;right=0;align=center;spacingLeft=6;overflow=hidden;html=1;whiteSpace=wrap;fontSize=17;" parent="oiTHZw6a8BI90Ofq1Eke-295" vertex="1">
          <mxGeometry x="240" width="200" height="70" as="geometry">
            <mxRectangle width="200" height="70" as="alternateBounds" />
          </mxGeometry>
        </mxCell>
        <mxCell id="oiTHZw6a8BI90Ofq1Eke-298" value="Emergency Course Drop Request" style="shape=table;startSize=40;container=1;collapsible=1;childLayout=tableLayout;fixedRows=1;rowLines=0;fontStyle=1;align=center;resizeLast=1;html=1;whiteSpace=wrap;fontSize=17;" parent="1" vertex="1">
          <mxGeometry x="70" y="1360" width="500" height="530" as="geometry" />
        </mxCell>
        <mxCell id="oiTHZw6a8BI90Ofq1Eke-299" value="" style="shape=tableRow;horizontal=0;startSize=0;swimlaneHead=0;swimlaneBody=0;fillColor=none;collapsible=0;dropTarget=0;points=[[0,0.5],[1,0.5]];portConstraint=eastwest;top=0;left=0;right=0;bottom=1;html=1;fontSize=17;" parent="oiTHZw6a8BI90Ofq1Eke-298" vertex="1">
          <mxGeometry y="40" width="500" height="70" as="geometry" />
        </mxCell>
        <mxCell id="oiTHZw6a8BI90Ofq1Eke-300" value="PK" style="shape=partialRectangle;connectable=0;fillColor=none;top=0;left=0;bottom=0;right=0;fontStyle=1;overflow=hidden;html=1;whiteSpace=wrap;fontSize=17;" parent="oiTHZw6a8BI90Ofq1Eke-299" vertex="1">
          <mxGeometry width="240" height="70" as="geometry">
            <mxRectangle width="240" height="70" as="alternateBounds" />
          </mxGeometry>
        </mxCell>
        <mxCell id="oiTHZw6a8BI90Ofq1Eke-301" value="Drop Request ID" style="shape=partialRectangle;connectable=0;fillColor=none;top=0;left=0;bottom=0;right=0;align=center;spacingLeft=6;fontStyle=5;overflow=hidden;html=1;whiteSpace=wrap;fontSize=17;" parent="oiTHZw6a8BI90Ofq1Eke-299" vertex="1">
          <mxGeometry x="240" width="260" height="70" as="geometry">
            <mxRectangle width="260" height="70" as="alternateBounds" />
          </mxGeometry>
        </mxCell>
        <mxCell id="oiTHZw6a8BI90Ofq1Eke-302" value="" style="shape=tableRow;horizontal=0;startSize=0;swimlaneHead=0;swimlaneBody=0;fillColor=none;collapsible=0;dropTarget=0;points=[[0,0.5],[1,0.5]];portConstraint=eastwest;top=0;left=0;right=0;bottom=0;html=1;fontSize=17;" parent="oiTHZw6a8BI90Ofq1Eke-298" vertex="1">
          <mxGeometry y="110" width="500" height="60" as="geometry" />
        </mxCell>
        <mxCell id="oiTHZw6a8BI90Ofq1Eke-303" value="FK (Mto1 with Student)" style="shape=partialRectangle;connectable=0;fillColor=none;top=0;left=0;bottom=0;right=0;fontStyle=1;overflow=hidden;html=1;whiteSpace=wrap;fontSize=17;" parent="oiTHZw6a8BI90Ofq1Eke-302" vertex="1">
          <mxGeometry width="240" height="60" as="geometry">
            <mxRectangle width="240" height="60" as="alternateBounds" />
          </mxGeometry>
        </mxCell>
        <mxCell id="oiTHZw6a8BI90Ofq1Eke-304" value="Student ID" style="shape=partialRectangle;connectable=0;fillColor=none;top=0;left=0;bottom=0;right=0;align=center;spacingLeft=6;fontStyle=5;overflow=hidden;html=1;whiteSpace=wrap;fontSize=17;" parent="oiTHZw6a8BI90Ofq1Eke-302" vertex="1">
          <mxGeometry x="240" width="260" height="60" as="geometry">
            <mxRectangle width="260" height="60" as="alternateBounds" />
          </mxGeometry>
        </mxCell>
        <mxCell id="oiTHZw6a8BI90Ofq1Eke-305" value="" style="shape=tableRow;horizontal=0;startSize=0;swimlaneHead=0;swimlaneBody=0;fillColor=none;collapsible=0;dropTarget=0;points=[[0,0.5],[1,0.5]];portConstraint=eastwest;top=0;left=0;right=0;bottom=0;fontSize=17;" parent="oiTHZw6a8BI90Ofq1Eke-298" vertex="1">
          <mxGeometry y="170" width="500" height="70" as="geometry" />
        </mxCell>
        <mxCell id="oiTHZw6a8BI90Ofq1Eke-306" value="&lt;b style=&quot;font-size: 17px;&quot;&gt;&lt;font style=&quot;font-size: 17px;&quot;&gt;FK (Mto1 with Course)&lt;/font&gt;&lt;/b&gt;" style="shape=partialRectangle;connectable=0;fillColor=none;top=0;left=0;bottom=0;right=0;fontStyle=0;overflow=hidden;whiteSpace=wrap;html=1;fontSize=17;" parent="oiTHZw6a8BI90Ofq1Eke-305" vertex="1">
          <mxGeometry width="240" height="70" as="geometry">
            <mxRectangle width="240" height="70" as="alternateBounds" />
          </mxGeometry>
        </mxCell>
        <mxCell id="oiTHZw6a8BI90Ofq1Eke-307" value="&lt;b style=&quot;font-size: 17px;&quot;&gt;&lt;u style=&quot;font-size: 17px;&quot;&gt;Course ID&lt;br style=&quot;font-size: 17px;&quot;&gt;&lt;/u&gt;&lt;/b&gt;" style="shape=partialRectangle;connectable=0;fillColor=none;top=0;left=0;bottom=0;right=0;align=center;spacingLeft=6;fontStyle=0;overflow=hidden;whiteSpace=wrap;html=1;fontSize=17;" parent="oiTHZw6a8BI90Ofq1Eke-305" vertex="1">
          <mxGeometry x="240" width="260" height="70" as="geometry">
            <mxRectangle width="260" height="70" as="alternateBounds" />
          </mxGeometry>
        </mxCell>
        <mxCell id="oiTHZw6a8BI90Ofq1Eke-311" value="" style="shape=tableRow;horizontal=0;startSize=0;swimlaneHead=0;swimlaneBody=0;fillColor=none;collapsible=0;dropTarget=0;points=[[0,0.5],[1,0.5]];portConstraint=eastwest;top=0;left=0;right=0;bottom=0;html=1;fontSize=17;" parent="oiTHZw6a8BI90Ofq1Eke-298" vertex="1">
          <mxGeometry y="240" width="500" height="70" as="geometry" />
        </mxCell>
        <mxCell id="oiTHZw6a8BI90Ofq1Eke-312" value="" style="shape=partialRectangle;connectable=0;fillColor=none;top=0;left=0;bottom=0;right=0;editable=1;overflow=hidden;html=1;whiteSpace=wrap;fontSize=17;" parent="oiTHZw6a8BI90Ofq1Eke-311" vertex="1">
          <mxGeometry width="240" height="70" as="geometry">
            <mxRectangle width="240" height="70" as="alternateBounds" />
          </mxGeometry>
        </mxCell>
        <mxCell id="oiTHZw6a8BI90Ofq1Eke-313" value="Request date" style="shape=partialRectangle;connectable=0;fillColor=none;top=0;left=0;bottom=0;right=0;align=center;spacingLeft=6;overflow=hidden;html=1;whiteSpace=wrap;fontSize=17;" parent="oiTHZw6a8BI90Ofq1Eke-311" vertex="1">
          <mxGeometry x="240" width="260" height="70" as="geometry">
            <mxRectangle width="260" height="70" as="alternateBounds" />
          </mxGeometry>
        </mxCell>
        <mxCell id="oiTHZw6a8BI90Ofq1Eke-314" value="" style="shape=tableRow;horizontal=0;startSize=0;swimlaneHead=0;swimlaneBody=0;fillColor=none;collapsible=0;dropTarget=0;points=[[0,0.5],[1,0.5]];portConstraint=eastwest;top=0;left=0;right=0;bottom=0;html=1;fontSize=17;" parent="oiTHZw6a8BI90Ofq1Eke-298" vertex="1">
          <mxGeometry y="310" width="500" height="80" as="geometry" />
        </mxCell>
        <mxCell id="oiTHZw6a8BI90Ofq1Eke-315" value="" style="shape=partialRectangle;connectable=0;fillColor=none;top=0;left=0;bottom=0;right=0;editable=1;overflow=hidden;html=1;whiteSpace=wrap;fontSize=17;" parent="oiTHZw6a8BI90Ofq1Eke-314" vertex="1">
          <mxGeometry width="240" height="80" as="geometry">
            <mxRectangle width="240" height="80" as="alternateBounds" />
          </mxGeometry>
        </mxCell>
        <mxCell id="oiTHZw6a8BI90Ofq1Eke-316" value="Request Result" style="shape=partialRectangle;connectable=0;fillColor=none;top=0;left=0;bottom=0;right=0;align=center;spacingLeft=6;overflow=hidden;html=1;whiteSpace=wrap;fontSize=17;" parent="oiTHZw6a8BI90Ofq1Eke-314" vertex="1">
          <mxGeometry x="240" width="260" height="80" as="geometry">
            <mxRectangle width="260" height="80" as="alternateBounds" />
          </mxGeometry>
        </mxCell>
        <mxCell id="oiTHZw6a8BI90Ofq1Eke-317" value="" style="shape=tableRow;horizontal=0;startSize=0;swimlaneHead=0;swimlaneBody=0;fillColor=none;collapsible=0;dropTarget=0;points=[[0,0.5],[1,0.5]];portConstraint=eastwest;top=0;left=0;right=0;bottom=0;html=1;fontSize=17;" parent="oiTHZw6a8BI90Ofq1Eke-298" vertex="1">
          <mxGeometry y="390" width="500" height="70" as="geometry" />
        </mxCell>
        <mxCell id="oiTHZw6a8BI90Ofq1Eke-318" value="" style="shape=partialRectangle;connectable=0;fillColor=none;top=0;left=0;bottom=0;right=0;editable=1;overflow=hidden;html=1;whiteSpace=wrap;fontSize=17;" parent="oiTHZw6a8BI90Ofq1Eke-317" vertex="1">
          <mxGeometry width="240" height="70" as="geometry">
            <mxRectangle width="240" height="70" as="alternateBounds" />
          </mxGeometry>
        </mxCell>
        <mxCell id="oiTHZw6a8BI90Ofq1Eke-319" value="Student Explanation" style="shape=partialRectangle;connectable=0;fillColor=none;top=0;left=0;bottom=0;right=0;align=center;spacingLeft=6;overflow=hidden;html=1;whiteSpace=wrap;fontSize=17;" parent="oiTHZw6a8BI90Ofq1Eke-317" vertex="1">
          <mxGeometry x="240" width="260" height="70" as="geometry">
            <mxRectangle width="260" height="70" as="alternateBounds" />
          </mxGeometry>
        </mxCell>
        <mxCell id="oiTHZw6a8BI90Ofq1Eke-320" value="" style="shape=tableRow;horizontal=0;startSize=0;swimlaneHead=0;swimlaneBody=0;fillColor=none;collapsible=0;dropTarget=0;points=[[0,0.5],[1,0.5]];portConstraint=eastwest;top=0;left=0;right=0;bottom=0;html=1;fontSize=17;" parent="oiTHZw6a8BI90Ofq1Eke-298" vertex="1">
          <mxGeometry y="460" width="500" height="70" as="geometry" />
        </mxCell>
        <mxCell id="oiTHZw6a8BI90Ofq1Eke-321" value="" style="shape=partialRectangle;connectable=0;fillColor=none;top=0;left=0;bottom=0;right=0;editable=1;overflow=hidden;html=1;whiteSpace=wrap;fontSize=17;" parent="oiTHZw6a8BI90Ofq1Eke-320" vertex="1">
          <mxGeometry width="240" height="70" as="geometry">
            <mxRectangle width="240" height="70" as="alternateBounds" />
          </mxGeometry>
        </mxCell>
        <mxCell id="oiTHZw6a8BI90Ofq1Eke-322" value="Supervisor Explanation" style="shape=partialRectangle;connectable=0;fillColor=none;top=0;left=0;bottom=0;right=0;align=center;spacingLeft=6;overflow=hidden;html=1;whiteSpace=wrap;fontSize=17;" parent="oiTHZw6a8BI90Ofq1Eke-320" vertex="1">
          <mxGeometry x="240" width="260" height="70" as="geometry">
            <mxRectangle width="260" height="70" as="alternateBounds" />
          </mxGeometry>
        </mxCell>
        <mxCell id="oiTHZw6a8BI90Ofq1Eke-324" value="" style="edgeStyle=entityRelationEdgeStyle;fontSize=17;html=1;endArrow=ERzeroToOne;startArrow=ERmandOne;rounded=0;exitX=1;exitY=0.5;exitDx=0;exitDy=0;entryX=0;entryY=0.5;entryDx=0;entryDy=0;" parent="1" source="oiTHZw6a8BI90Ofq1Eke-283" target="oiTHZw6a8BI90Ofq1Eke-78" edge="1">
          <mxGeometry width="100" height="100" relative="1" as="geometry">
            <mxPoint x="240" y="1010" as="sourcePoint" />
            <mxPoint x="340" y="910" as="targetPoint" />
          </mxGeometry>
        </mxCell>
        <mxCell id="oiTHZw6a8BI90Ofq1Eke-326" value="User" style="shape=table;startSize=45;container=1;collapsible=1;childLayout=tableLayout;fixedRows=1;rowLines=0;fontStyle=1;align=center;resizeLast=1;html=1;fontSize=17;spacing=2;spacingTop=0;textDirection=ltr;verticalAlign=middle;" parent="1" vertex="1">
          <mxGeometry x="-540" y="85" width="310" height="595" as="geometry" />
        </mxCell>
        <mxCell id="oiTHZw6a8BI90Ofq1Eke-327" value="" style="shape=tableRow;horizontal=0;startSize=0;swimlaneHead=0;swimlaneBody=0;fillColor=none;collapsible=0;dropTarget=0;points=[[0,0.5],[1,0.5]];portConstraint=eastwest;top=0;left=0;right=0;bottom=1;fontSize=17;" parent="oiTHZw6a8BI90Ofq1Eke-326" vertex="1">
          <mxGeometry y="45" width="310" height="50" as="geometry" />
        </mxCell>
        <mxCell id="oiTHZw6a8BI90Ofq1Eke-328" value="PK" style="shape=partialRectangle;connectable=0;fillColor=none;top=0;left=0;bottom=0;right=0;fontStyle=1;overflow=hidden;whiteSpace=wrap;html=1;fontSize=17;" parent="oiTHZw6a8BI90Ofq1Eke-327" vertex="1">
          <mxGeometry width="79.99999999999955" height="50" as="geometry">
            <mxRectangle width="79.99999999999955" height="50" as="alternateBounds" />
          </mxGeometry>
        </mxCell>
        <mxCell id="oiTHZw6a8BI90Ofq1Eke-329" value="User_id" style="shape=partialRectangle;connectable=0;fillColor=none;top=0;left=0;bottom=0;right=0;align=center;spacingLeft=6;fontStyle=5;overflow=hidden;whiteSpace=wrap;html=1;fontSize=17;" parent="oiTHZw6a8BI90Ofq1Eke-327" vertex="1">
          <mxGeometry x="79.99999999999955" width="230.00000000000045" height="50" as="geometry">
            <mxRectangle width="230.00000000000045" height="50" as="alternateBounds" />
          </mxGeometry>
        </mxCell>
        <mxCell id="oiTHZw6a8BI90Ofq1Eke-330" value="" style="shape=tableRow;horizontal=0;startSize=0;swimlaneHead=0;swimlaneBody=0;fillColor=none;collapsible=0;dropTarget=0;points=[[0,0.5],[1,0.5]];portConstraint=eastwest;top=0;left=0;right=0;bottom=0;fontSize=17;" parent="oiTHZw6a8BI90Ofq1Eke-326" vertex="1">
          <mxGeometry y="95" width="310" height="60" as="geometry" />
        </mxCell>
        <mxCell id="oiTHZw6a8BI90Ofq1Eke-331" value="" style="shape=partialRectangle;connectable=0;fillColor=none;top=0;left=0;bottom=0;right=0;editable=1;overflow=hidden;whiteSpace=wrap;html=1;fontSize=17;" parent="oiTHZw6a8BI90Ofq1Eke-330" vertex="1">
          <mxGeometry width="79.99999999999955" height="60" as="geometry">
            <mxRectangle width="79.99999999999955" height="60" as="alternateBounds" />
          </mxGeometry>
        </mxCell>
        <mxCell id="oiTHZw6a8BI90Ofq1Eke-332" value="Name" style="shape=partialRectangle;connectable=0;fillColor=none;top=0;left=0;bottom=0;right=0;align=center;spacingLeft=6;overflow=hidden;whiteSpace=wrap;html=1;fontSize=17;" parent="oiTHZw6a8BI90Ofq1Eke-330" vertex="1">
          <mxGeometry x="79.99999999999955" width="230.00000000000045" height="60" as="geometry">
            <mxRectangle width="230.00000000000045" height="60" as="alternateBounds" />
          </mxGeometry>
        </mxCell>
        <mxCell id="oiTHZw6a8BI90Ofq1Eke-333" value="" style="shape=tableRow;horizontal=0;startSize=0;swimlaneHead=0;swimlaneBody=0;fillColor=none;collapsible=0;dropTarget=0;points=[[0,0.5],[1,0.5]];portConstraint=eastwest;top=0;left=0;right=0;bottom=0;fontSize=17;" parent="oiTHZw6a8BI90Ofq1Eke-326" vertex="1">
          <mxGeometry y="155" width="310" height="50" as="geometry" />
        </mxCell>
        <mxCell id="oiTHZw6a8BI90Ofq1Eke-334" value="" style="shape=partialRectangle;connectable=0;fillColor=none;top=0;left=0;bottom=0;right=0;editable=1;overflow=hidden;whiteSpace=wrap;html=1;fontSize=17;" parent="oiTHZw6a8BI90Ofq1Eke-333" vertex="1">
          <mxGeometry width="79.99999999999955" height="50" as="geometry">
            <mxRectangle width="79.99999999999955" height="50" as="alternateBounds" />
          </mxGeometry>
        </mxCell>
        <mxCell id="oiTHZw6a8BI90Ofq1Eke-335" value="Last_name" style="shape=partialRectangle;connectable=0;fillColor=none;top=0;left=0;bottom=0;right=0;align=center;spacingLeft=6;overflow=hidden;whiteSpace=wrap;html=1;fontSize=17;" parent="oiTHZw6a8BI90Ofq1Eke-333" vertex="1">
          <mxGeometry x="79.99999999999955" width="230.00000000000045" height="50" as="geometry">
            <mxRectangle width="230.00000000000045" height="50" as="alternateBounds" />
          </mxGeometry>
        </mxCell>
        <mxCell id="oiTHZw6a8BI90Ofq1Eke-336" value="" style="shape=tableRow;horizontal=0;startSize=0;swimlaneHead=0;swimlaneBody=0;fillColor=none;collapsible=0;dropTarget=0;points=[[0,0.5],[1,0.5]];portConstraint=eastwest;top=0;left=0;right=0;bottom=0;fontSize=17;" parent="oiTHZw6a8BI90Ofq1Eke-326" vertex="1">
          <mxGeometry y="205" width="310" height="55" as="geometry" />
        </mxCell>
        <mxCell id="oiTHZw6a8BI90Ofq1Eke-337" value="" style="shape=partialRectangle;connectable=0;fillColor=none;top=0;left=0;bottom=0;right=0;editable=1;overflow=hidden;whiteSpace=wrap;html=1;fontSize=17;" parent="oiTHZw6a8BI90Ofq1Eke-336" vertex="1">
          <mxGeometry width="79.99999999999955" height="55" as="geometry">
            <mxRectangle width="79.99999999999955" height="55" as="alternateBounds" />
          </mxGeometry>
        </mxCell>
        <mxCell id="oiTHZw6a8BI90Ofq1Eke-338" value="Password" style="shape=partialRectangle;connectable=0;fillColor=none;top=0;left=0;bottom=0;right=0;align=center;spacingLeft=6;overflow=hidden;whiteSpace=wrap;html=1;fontSize=17;" parent="oiTHZw6a8BI90Ofq1Eke-336" vertex="1">
          <mxGeometry x="79.99999999999955" width="230.00000000000045" height="55" as="geometry">
            <mxRectangle width="230.00000000000045" height="55" as="alternateBounds" />
          </mxGeometry>
        </mxCell>
        <mxCell id="oiTHZw6a8BI90Ofq1Eke-339" value="" style="shape=tableRow;horizontal=0;startSize=0;swimlaneHead=0;swimlaneBody=0;fillColor=none;collapsible=0;dropTarget=0;points=[[0,0.5],[1,0.5]];portConstraint=eastwest;top=0;left=0;right=0;bottom=0;fontSize=17;" parent="oiTHZw6a8BI90Ofq1Eke-326" vertex="1">
          <mxGeometry y="260" width="310" height="50" as="geometry" />
        </mxCell>
        <mxCell id="oiTHZw6a8BI90Ofq1Eke-340" value="" style="shape=partialRectangle;connectable=0;fillColor=none;top=0;left=0;bottom=0;right=0;editable=1;overflow=hidden;whiteSpace=wrap;html=1;fontSize=17;" parent="oiTHZw6a8BI90Ofq1Eke-339" vertex="1">
          <mxGeometry width="79.99999999999955" height="50" as="geometry">
            <mxRectangle width="79.99999999999955" height="50" as="alternateBounds" />
          </mxGeometry>
        </mxCell>
        <mxCell id="oiTHZw6a8BI90Ofq1Eke-341" value="Profile_image" style="shape=partialRectangle;connectable=0;fillColor=none;top=0;left=0;bottom=0;right=0;align=center;spacingLeft=6;overflow=hidden;whiteSpace=wrap;html=1;fontSize=17;" parent="oiTHZw6a8BI90Ofq1Eke-339" vertex="1">
          <mxGeometry x="79.99999999999955" width="230.00000000000045" height="50" as="geometry">
            <mxRectangle width="230.00000000000045" height="50" as="alternateBounds" />
          </mxGeometry>
        </mxCell>
        <mxCell id="oiTHZw6a8BI90Ofq1Eke-342" value="" style="shape=tableRow;horizontal=0;startSize=0;swimlaneHead=0;swimlaneBody=0;fillColor=none;collapsible=0;dropTarget=0;points=[[0,0.5],[1,0.5]];portConstraint=eastwest;top=0;left=0;right=0;bottom=0;fontSize=17;" parent="oiTHZw6a8BI90Ofq1Eke-326" vertex="1">
          <mxGeometry y="310" width="310" height="55" as="geometry" />
        </mxCell>
        <mxCell id="oiTHZw6a8BI90Ofq1Eke-343" value="" style="shape=partialRectangle;connectable=0;fillColor=none;top=0;left=0;bottom=0;right=0;editable=1;overflow=hidden;whiteSpace=wrap;html=1;fontSize=17;" parent="oiTHZw6a8BI90Ofq1Eke-342" vertex="1">
          <mxGeometry width="79.99999999999955" height="55" as="geometry">
            <mxRectangle width="79.99999999999955" height="55" as="alternateBounds" />
          </mxGeometry>
        </mxCell>
        <mxCell id="oiTHZw6a8BI90Ofq1Eke-344" value="Email" style="shape=partialRectangle;connectable=0;fillColor=none;top=0;left=0;bottom=0;right=0;align=center;spacingLeft=6;overflow=hidden;whiteSpace=wrap;html=1;fontSize=17;" parent="oiTHZw6a8BI90Ofq1Eke-342" vertex="1">
          <mxGeometry x="79.99999999999955" width="230.00000000000045" height="55" as="geometry">
            <mxRectangle width="230.00000000000045" height="55" as="alternateBounds" />
          </mxGeometry>
        </mxCell>
        <mxCell id="oiTHZw6a8BI90Ofq1Eke-345" value="" style="shape=tableRow;horizontal=0;startSize=0;swimlaneHead=0;swimlaneBody=0;fillColor=none;collapsible=0;dropTarget=0;points=[[0,0.5],[1,0.5]];portConstraint=eastwest;top=0;left=0;right=0;bottom=0;fontSize=17;" parent="oiTHZw6a8BI90Ofq1Eke-326" vertex="1">
          <mxGeometry y="365" width="310" height="60" as="geometry" />
        </mxCell>
        <mxCell id="oiTHZw6a8BI90Ofq1Eke-346" value="" style="shape=partialRectangle;connectable=0;fillColor=none;top=0;left=0;bottom=0;right=0;editable=1;overflow=hidden;whiteSpace=wrap;html=1;fontSize=17;" parent="oiTHZw6a8BI90Ofq1Eke-345" vertex="1">
          <mxGeometry width="79.99999999999955" height="60" as="geometry">
            <mxRectangle width="79.99999999999955" height="60" as="alternateBounds" />
          </mxGeometry>
        </mxCell>
        <mxCell id="oiTHZw6a8BI90Ofq1Eke-347" value="Phone_number" style="shape=partialRectangle;connectable=0;fillColor=none;top=0;left=0;bottom=0;right=0;align=center;spacingLeft=6;overflow=hidden;whiteSpace=wrap;html=1;fontSize=17;" parent="oiTHZw6a8BI90Ofq1Eke-345" vertex="1">
          <mxGeometry x="79.99999999999955" width="230.00000000000045" height="60" as="geometry">
            <mxRectangle width="230.00000000000045" height="60" as="alternateBounds" />
          </mxGeometry>
        </mxCell>
        <mxCell id="oiTHZw6a8BI90Ofq1Eke-348" value="" style="shape=tableRow;horizontal=0;startSize=0;swimlaneHead=0;swimlaneBody=0;fillColor=none;collapsible=0;dropTarget=0;points=[[0,0.5],[1,0.5]];portConstraint=eastwest;top=0;left=0;right=0;bottom=0;fontSize=17;" parent="oiTHZw6a8BI90Ofq1Eke-326" vertex="1">
          <mxGeometry y="425" width="310" height="55" as="geometry" />
        </mxCell>
        <mxCell id="oiTHZw6a8BI90Ofq1Eke-349" value="" style="shape=partialRectangle;connectable=0;fillColor=none;top=0;left=0;bottom=0;right=0;editable=1;overflow=hidden;whiteSpace=wrap;html=1;fontSize=17;" parent="oiTHZw6a8BI90Ofq1Eke-348" vertex="1">
          <mxGeometry width="79.99999999999955" height="55" as="geometry">
            <mxRectangle width="79.99999999999955" height="55" as="alternateBounds" />
          </mxGeometry>
        </mxCell>
        <mxCell id="oiTHZw6a8BI90Ofq1Eke-350" value="National_code" style="shape=partialRectangle;connectable=0;fillColor=none;top=0;left=0;bottom=0;right=0;align=center;spacingLeft=6;overflow=hidden;whiteSpace=wrap;html=1;fontSize=17;" parent="oiTHZw6a8BI90Ofq1Eke-348" vertex="1">
          <mxGeometry x="79.99999999999955" width="230.00000000000045" height="55" as="geometry">
            <mxRectangle width="230.00000000000045" height="55" as="alternateBounds" />
          </mxGeometry>
        </mxCell>
        <mxCell id="oiTHZw6a8BI90Ofq1Eke-351" value="" style="shape=tableRow;horizontal=0;startSize=0;swimlaneHead=0;swimlaneBody=0;fillColor=none;collapsible=0;dropTarget=0;points=[[0,0.5],[1,0.5]];portConstraint=eastwest;top=0;left=0;right=0;bottom=0;fontSize=17;" parent="oiTHZw6a8BI90Ofq1Eke-326" vertex="1">
          <mxGeometry y="480" width="310" height="60" as="geometry" />
        </mxCell>
        <mxCell id="oiTHZw6a8BI90Ofq1Eke-352" value="" style="shape=partialRectangle;connectable=0;fillColor=none;top=0;left=0;bottom=0;right=0;editable=1;overflow=hidden;whiteSpace=wrap;html=1;fontSize=17;" parent="oiTHZw6a8BI90Ofq1Eke-351" vertex="1">
          <mxGeometry width="79.99999999999955" height="60" as="geometry">
            <mxRectangle width="79.99999999999955" height="60" as="alternateBounds" />
          </mxGeometry>
        </mxCell>
        <mxCell id="oiTHZw6a8BI90Ofq1Eke-353" value="Gender" style="shape=partialRectangle;connectable=0;fillColor=none;top=0;left=0;bottom=0;right=0;align=center;spacingLeft=6;overflow=hidden;whiteSpace=wrap;html=1;fontSize=17;" parent="oiTHZw6a8BI90Ofq1Eke-351" vertex="1">
          <mxGeometry x="79.99999999999955" width="230.00000000000045" height="60" as="geometry">
            <mxRectangle width="230.00000000000045" height="60" as="alternateBounds" />
          </mxGeometry>
        </mxCell>
        <mxCell id="oiTHZw6a8BI90Ofq1Eke-354" value="" style="shape=tableRow;horizontal=0;startSize=0;swimlaneHead=0;swimlaneBody=0;fillColor=none;collapsible=0;dropTarget=0;points=[[0,0.5],[1,0.5]];portConstraint=eastwest;top=0;left=0;right=0;bottom=0;fontSize=17;" parent="oiTHZw6a8BI90Ofq1Eke-326" vertex="1">
          <mxGeometry y="540" width="310" height="55" as="geometry" />
        </mxCell>
        <mxCell id="oiTHZw6a8BI90Ofq1Eke-355" value="" style="shape=partialRectangle;connectable=0;fillColor=none;top=0;left=0;bottom=0;right=0;editable=1;overflow=hidden;whiteSpace=wrap;html=1;fontSize=17;" parent="oiTHZw6a8BI90Ofq1Eke-354" vertex="1">
          <mxGeometry width="79.99999999999955" height="55" as="geometry">
            <mxRectangle width="79.99999999999955" height="55" as="alternateBounds" />
          </mxGeometry>
        </mxCell>
        <mxCell id="oiTHZw6a8BI90Ofq1Eke-356" value="Birth_date" style="shape=partialRectangle;connectable=0;fillColor=none;top=0;left=0;bottom=0;right=0;align=center;spacingLeft=6;overflow=hidden;whiteSpace=wrap;html=1;fontSize=17;spacing=2;" parent="oiTHZw6a8BI90Ofq1Eke-354" vertex="1">
          <mxGeometry x="79.99999999999955" width="230.00000000000045" height="55" as="geometry">
            <mxRectangle width="230.00000000000045" height="55" as="alternateBounds" />
          </mxGeometry>
        </mxCell>
        <mxCell id="oiTHZw6a8BI90Ofq1Eke-205" value="" style="edgeStyle=entityRelationEdgeStyle;fontSize=17;html=1;endArrow=ERmany;startArrow=ERmany;rounded=0;entryX=-0.01;entryY=0.073;entryDx=0;entryDy=0;entryPerimeter=0;exitX=1;exitY=0.5;exitDx=0;exitDy=0;" parent="1" source="oiTHZw6a8BI90Ofq1Eke-215" target="oiTHZw6a8BI90Ofq1Eke-20" edge="1">
          <mxGeometry width="100" height="100" relative="1" as="geometry">
            <mxPoint x="-81.26000000000022" y="-206.79999999999973" as="sourcePoint" />
            <mxPoint x="10" y="307" as="targetPoint" />
          </mxGeometry>
        </mxCell>
        <mxCell id="MB9ObGxGcaxl4uOhNXRl-1" value="" style="edgeStyle=entityRelationEdgeStyle;fontSize=17;html=1;endArrow=ERoneToMany;rounded=0;entryX=1;entryY=0.5;entryDx=0;entryDy=0;exitX=0;exitY=0.5;exitDx=0;exitDy=0;" parent="1" source="oiTHZw6a8BI90Ofq1Eke-157" target="oiTHZw6a8BI90Ofq1Eke-227" edge="1">
          <mxGeometry width="100" height="100" relative="1" as="geometry">
            <mxPoint x="730" y="-240" as="sourcePoint" />
            <mxPoint x="800" y="-110" as="targetPoint" />
          </mxGeometry>
        </mxCell>
        <mxCell id="MB9ObGxGcaxl4uOhNXRl-5" value="" style="edgeStyle=entityRelationEdgeStyle;fontSize=17;html=1;endArrow=ERoneToMany;rounded=0;entryX=0;entryY=0.5;entryDx=0;entryDy=0;exitX=1;exitY=0.5;exitDx=0;exitDy=0;" parent="1" source="oiTHZw6a8BI90Ofq1Eke-157" target="oiTHZw6a8BI90Ofq1Eke-113" edge="1">
          <mxGeometry width="100" height="100" relative="1" as="geometry">
            <mxPoint x="1090" y="190" as="sourcePoint" />
            <mxPoint x="1480" y="360" as="targetPoint" />
          </mxGeometry>
        </mxCell>
        <mxCell id="MB9ObGxGcaxl4uOhNXRl-23" value="" style="edgeStyle=entityRelationEdgeStyle;fontSize=12;html=1;endArrow=ERoneToMany;rounded=0;entryX=1;entryY=0.5;entryDx=0;entryDy=0;exitX=0.002;exitY=0.04;exitDx=0;exitDy=0;exitPerimeter=0;" parent="1" source="oiTHZw6a8BI90Ofq1Eke-71" target="oiTHZw6a8BI90Ofq1Eke-305" edge="1">
          <mxGeometry width="100" height="100" relative="1" as="geometry">
            <mxPoint x="650" y="1360" as="sourcePoint" />
            <mxPoint x="750" y="1260" as="targetPoint" />
          </mxGeometry>
        </mxCell>
        <mxCell id="PTlzqsupw8WGhab1zeHw-1" value="Status" style="shape=table;startSize=40;container=1;collapsible=1;childLayout=tableLayout;fixedRows=1;rowLines=0;fontStyle=1;align=center;resizeLast=1;html=1;fontSize=18;" parent="1" vertex="1">
          <mxGeometry x="1250" y="-790" width="220" height="140" as="geometry" />
        </mxCell>
        <mxCell id="PTlzqsupw8WGhab1zeHw-2" value="" style="shape=tableRow;horizontal=0;startSize=0;swimlaneHead=0;swimlaneBody=0;fillColor=none;collapsible=0;dropTarget=0;points=[[0,0.5],[1,0.5]];portConstraint=eastwest;top=0;left=0;right=0;bottom=1;fontSize=18;" parent="PTlzqsupw8WGhab1zeHw-1" vertex="1">
          <mxGeometry y="40" width="220" height="50" as="geometry" />
        </mxCell>
        <mxCell id="PTlzqsupw8WGhab1zeHw-3" value="PK" style="shape=partialRectangle;connectable=0;fillColor=none;top=0;left=0;bottom=0;right=0;fontStyle=1;overflow=hidden;whiteSpace=wrap;html=1;fontSize=18;" parent="PTlzqsupw8WGhab1zeHw-2" vertex="1">
          <mxGeometry width="60" height="50" as="geometry">
            <mxRectangle width="60" height="50" as="alternateBounds" />
          </mxGeometry>
        </mxCell>
        <mxCell id="PTlzqsupw8WGhab1zeHw-4" value="Status_id" style="shape=partialRectangle;connectable=0;fillColor=none;top=0;left=0;bottom=0;right=0;align=left;spacingLeft=6;fontStyle=5;overflow=hidden;whiteSpace=wrap;html=1;fontSize=18;" parent="PTlzqsupw8WGhab1zeHw-2" vertex="1">
          <mxGeometry x="60" width="160" height="50" as="geometry">
            <mxRectangle width="160" height="50" as="alternateBounds" />
          </mxGeometry>
        </mxCell>
        <mxCell id="PTlzqsupw8WGhab1zeHw-5" value="" style="shape=tableRow;horizontal=0;startSize=0;swimlaneHead=0;swimlaneBody=0;fillColor=none;collapsible=0;dropTarget=0;points=[[0,0.5],[1,0.5]];portConstraint=eastwest;top=0;left=0;right=0;bottom=0;fontSize=18;" parent="PTlzqsupw8WGhab1zeHw-1" vertex="1">
          <mxGeometry y="90" width="220" height="50" as="geometry" />
        </mxCell>
        <mxCell id="PTlzqsupw8WGhab1zeHw-6" value="" style="shape=partialRectangle;connectable=0;fillColor=none;top=0;left=0;bottom=0;right=0;editable=1;overflow=hidden;whiteSpace=wrap;html=1;fontSize=18;" parent="PTlzqsupw8WGhab1zeHw-5" vertex="1">
          <mxGeometry width="60" height="50" as="geometry">
            <mxRectangle width="60" height="50" as="alternateBounds" />
          </mxGeometry>
        </mxCell>
        <mxCell id="PTlzqsupw8WGhab1zeHw-7" value="Description" style="shape=partialRectangle;connectable=0;fillColor=none;top=0;left=0;bottom=0;right=0;align=left;spacingLeft=6;overflow=hidden;whiteSpace=wrap;html=1;fontSize=18;" parent="PTlzqsupw8WGhab1zeHw-5" vertex="1">
          <mxGeometry x="60" width="160" height="50" as="geometry">
            <mxRectangle width="160" height="50" as="alternateBounds" />
          </mxGeometry>
        </mxCell>
        <mxCell id="PTlzqsupw8WGhab1zeHw-14" value="" style="edgeStyle=entityRelationEdgeStyle;fontSize=12;html=1;endArrow=ERmandOne;startArrow=ERmandOne;rounded=0;entryX=0;entryY=0.5;entryDx=0;entryDy=0;exitX=1;exitY=0.5;exitDx=0;exitDy=0;" parent="1" source="MB9ObGxGcaxl4uOhNXRl-9" target="PTlzqsupw8WGhab1zeHw-2" edge="1">
          <mxGeometry width="100" height="100" relative="1" as="geometry">
            <mxPoint x="710" y="-390" as="sourcePoint" />
            <mxPoint x="810" y="-490" as="targetPoint" />
          </mxGeometry>
        </mxCell>
        <mxCell id="PTlzqsupw8WGhab1zeHw-15" value="" style="edgeStyle=entityRelationEdgeStyle;fontSize=12;html=1;endArrow=ERmandOne;startArrow=ERmandOne;rounded=0;exitX=1;exitY=0.5;exitDx=0;exitDy=0;entryX=0;entryY=0.5;entryDx=0;entryDy=0;" parent="1" source="oiTHZw6a8BI90Ofq1Eke-273" target="PTlzqsupw8WGhab1zeHw-2" edge="1">
          <mxGeometry width="100" height="100" relative="1" as="geometry">
            <mxPoint x="525" y="-355" as="sourcePoint" />
            <mxPoint x="1275" y="-670" as="targetPoint" />
          </mxGeometry>
        </mxCell>
      </root>
    </mxGraphModel>
  </diagram>
</mxfile>
